<?xml version="1.0" standalone="no"?>
<!DOCTYPE svg PUBLIC "-//W3C//DTD SVG 1.1//EN" "http://www.w3.org/Graphics/SVG/1.1/DTD/svg11.dtd" >
<svg>
<metadata>
Created by FontForge 20120731 at Thu Aug  4 06:32:11 2016
 By www
Copyright (c) 2013 by Charles Daoud. All rights reserved.
</metadata>
<defs>
<font id="DenseW01-Thin" horiz-adv-x="282" >
  <font-face 
    font-family="DenseW01-Thin"
    font-weight="250"
    font-stretch="normal"
    units-per-em="1000"
    panose-1="2 0 5 8 0 0 0 2 0 4"
    ascent="800"
    descent="-200"
    x-height="488"
    cap-height="675"
    bbox="-10 -174 714 817"
    underline-thickness="50"
    underline-position="-125"
    unicode-range="U+000D-2122"
  />
<missing-glyph horiz-adv-x="645" 
d="M138 334q0 -11 -8 -19t-19 -8h-21v173h21q11 0 19 -8t8 -19v-119zM153 453q0 17 -12.5 29.5t-29.5 12.5h-36v-203h36q17 0 29.5 12.5t12.5 29.5v119zM249 480v15h-66v-203h68v15h-51v78h36v17h-36v78h49zM281 292h16v162l51 -162h17v203h-17v-153l-48 153h-19v-203z
M452 363q1 -1 3 -4q1 -2 2 -5t1 -6v-20q0 -10 -7 -17t-17 -7q-9 0 -16 7t-7 17v32l-16 -2v-30q0 -16 11.5 -27.5t27.5 -11.5q17 0 28 11.5t11 27.5v20q0 5 -1.5 10t-3.5 8q-2 4 -4 7l-48 57q-2 1 -3 4q-2 6 -2 11v14q0 10 7 17t16 7q10 0 17 -7t7 -17v-27l15 1v26
q0 16 -11 27.5t-28 11.5q-16 0 -27.5 -11.5t-11.5 -27.5v-14q0 -10 4 -18q2 -4 5 -7zM567 480v15h-64v-203h67v15h-52v78h36v17h-36v78h49zM30 540h585v-293h-585v293z" />
    <glyph glyph-name=".notdef" horiz-adv-x="645" 
d="M138 334q0 -11 -8 -19t-19 -8h-21v173h21q11 0 19 -8t8 -19v-119zM153 453q0 17 -12.5 29.5t-29.5 12.5h-36v-203h36q17 0 29.5 12.5t12.5 29.5v119zM249 480v15h-66v-203h68v15h-51v78h36v17h-36v78h49zM281 292h16v162l51 -162h17v203h-17v-153l-48 153h-19v-203z
M452 363q1 -1 3 -4q1 -2 2 -5t1 -6v-20q0 -10 -7 -17t-17 -7q-9 0 -16 7t-7 17v32l-16 -2v-30q0 -16 11.5 -27.5t27.5 -11.5q17 0 28 11.5t11 27.5v20q0 5 -1.5 10t-3.5 8q-2 4 -4 7l-48 57q-2 1 -3 4q-2 6 -2 11v14q0 10 7 17t16 7q10 0 17 -7t7 -17v-27l15 1v26
q0 16 -11 27.5t-28 11.5q-16 0 -27.5 -11.5t-11.5 -27.5v-14q0 -10 4 -18q2 -4 5 -7zM567 480v15h-64v-203h67v15h-52v78h36v17h-36v78h49zM30 540h585v-293h-585v293z" />
    <glyph glyph-name="glyph1" horiz-adv-x="0" 
 />
    <glyph glyph-name="glyph1" horiz-adv-x="0" 
 />
    <glyph glyph-name="uni000D" unicode="&#xd;" horiz-adv-x="148" 
 />
    <glyph glyph-name="space" unicode=" " horiz-adv-x="148" 
 />
    <glyph glyph-name="exclam" unicode="!" horiz-adv-x="144" 
d="M62 70h20v-70h-20v70zM62 675h20v-548h-20v548z" />
    <glyph glyph-name="quotedbl" unicode="&#x22;" horiz-adv-x="174" 
d="M47 675h22l-2 -121h-20v121zM106 675h22l-2 -121h-20v121z" />
    <glyph glyph-name="numbersign" unicode="#" horiz-adv-x="474" 
d="M310 246h-142v-211l-20 -2v213h-104v20h104v142h-104v20h104v212l20 2v-214h142v212l20 2v-214h101v-20h-101v-142h101v-20h-101v-211l-20 -2v213zM168 266h142v142h-142v-142z" />
    <glyph glyph-name="dollar" unicode="$" horiz-adv-x="316" 
d="M44 223l20 2v-116q0 -20 7.5 -37t20 -29.5t29.5 -20t37 -7.5q19 0 36.5 7.5t30 20t20 29.5t7.5 37v87q0 9 -2.5 16.5t-5.5 13.5q-4 6 -7 12l-173 206q-6 7 -10 16q-4 8 -7 17.5t-3 21.5v67q0 45 29.5 77t74.5 36v66l20 2v-68q44 -4 74 -36t30 -77v-99l-20 -2v101
q0 19 -7.5 36.5t-20 30t-30 20t-36.5 7.5q-20 0 -37 -7.5t-29.5 -20t-20 -30t-7.5 -36.5v-67q0 -18 7 -30q4 -7 8 -12l173 -206q6 -7 10 -16q4 -8 7 -18t3 -21v-87q0 -23 -8 -42.5t-22 -35t-33 -25t-41 -10.5v-66l-20 -2v68q-22 1 -41 10.5t-33 25t-22 35t-8 42.5v114z" />
    <glyph glyph-name="percent" unicode="%" horiz-adv-x="530" 
d="M447 675l19 -11l-383 -664l-19 11zM181 409q0 -29 -20.5 -49.5t-49.5 -20.5t-49.5 20.5t-20.5 49.5v201q0 29 20.5 49.5t49.5 20.5t49.5 -20.5t20.5 -49.5v-201zM61 409q0 -21 14.5 -35.5t35.5 -14.5t35.5 14.5t14.5 35.5v201q0 21 -14.5 35.5t-35.5 14.5t-35.5 -14.5
t-14.5 -35.5v-201zM489 65q0 -29 -20.5 -49.5t-49.5 -20.5t-49.5 20.5t-20.5 49.5v201q0 29 20.5 49.5t49.5 20.5t49.5 -20.5t20.5 -49.5v-201zM369 65q0 -21 14.5 -35.5t35.5 -14.5t35.5 14.5t14.5 35.5v201q0 21 -14.5 35.5t-35.5 14.5t-35.5 -14.5t-14.5 -35.5v-201z" />
    <glyph glyph-name="ampersand" unicode="&#x26;" horiz-adv-x="362" 
d="M331 347v-20h-96q26 -17 41 -44t15 -59v-106q0 -26 -9.5 -48t-26.5 -39t-39.5 -26.5t-47.5 -9.5q-26 0 -48 9.5t-39 26.5t-26.5 39t-9.5 48v106q0 38 21 69t55 45q-25 13 -40.5 37t-15.5 55v147q0 21 8 40t22 33t33 22t40 8t40 -8t33 -22t22 -33t8 -40v-80l-20 -2v82
q0 35 -24 59t-59 24t-59 -24t-24 -59v-147q0 -35 24 -59t59 -24h163zM65 118q0 -21 8 -40t22 -33t33 -22t40 -8t40 8t33 22t22 33t8 40v106q0 21 -8 40t-22 33t-33 22t-40 8t-40 -8t-33 -22t-22 -33t-8 -40v-106z" />
    <glyph glyph-name="quotesingle" unicode="'" horiz-adv-x="121" 
d="M65 675h20l-26 -184h-18z" />
    <glyph glyph-name="parenleft" unicode="(" horiz-adv-x="175" 
d="M148 -126q-21 0 -40.5 33.5t-34.5 91.5t-23.5 135.5t-8.5 166.5v1q0 88 8.5 166t23.5 136t34.5 91.5t40.5 33.5v-15q-18 0 -34 -32.5t-27.5 -88.5t-18.5 -131t-7 -160v-1q0 -85 7 -160t18.5 -131t27.5 -88.5t34 -32.5v-15z" />
    <glyph glyph-name="parenright" unicode=")" horiz-adv-x="175" 
d="M27 -111q18 0 34 32.5t27.5 88.5t18.5 131t7 160v1q0 85 -7 160t-18.5 131t-27.5 88.5t-34 32.5v15q21 0 40.5 -33.5t34.5 -91.5t23.5 -136t8.5 -166v-1q0 -89 -8.5 -166.5t-23.5 -135.5t-34.5 -91.5t-40.5 -33.5v15z" />
    <glyph glyph-name="asterisk" unicode="*" horiz-adv-x="254" 
d="M134 571v-80h-14v80l-69 -40l-7 12l69 40l-69 40l7 12l69 -40v80h14v-80l69 40l7 -12l-69 -40l69 -40l-7 -12z" />
    <glyph glyph-name="plus" unicode="+" horiz-adv-x="318" 
d="M50 323h99v99h20v-99h99v-20h-99v-99h-20v99h-99v20z" />
    <glyph glyph-name="comma" unicode="," horiz-adv-x="168" 
d="M94 0q0 -22 -12 -37t-29 -15v15q9 0 15 11t6 26v70h20v-70z" />
    <glyph glyph-name="hyphen" unicode="-" horiz-adv-x="252" 
d="M47 295h158v-20h-158v20z" />
    <glyph glyph-name="period" unicode="." horiz-adv-x="120" 
d="M50 70h20v-70h-20v70z" />
    <glyph glyph-name="slash" unicode="/" horiz-adv-x="288" 
d="M37 -54h-20l234 783h20z" />
    <glyph glyph-name="zero" unicode="0" horiz-adv-x="338" 
d="M260 569q0 38 -26.5 64.5t-64.5 26.5t-64.5 -26.5t-26.5 -64.5v-463q0 -38 26.5 -64.5t64.5 -26.5t64.5 26.5t26.5 64.5v463zM280 106q0 -23 -9 -43t-24 -35t-35 -24t-43 -9t-43 9t-35 24t-24 35t-9 43v463q0 23 9 43t24 35t35 24t43 9t43 -9t35 -24t24 -35t9 -43v-463z
" />
    <glyph glyph-name="one" unicode="1" horiz-adv-x="150" 
d="M65 673l20 2v-675h-20v673z" />
    <glyph glyph-name="two" unicode="2" horiz-adv-x="313" 
d="M267 20v-20h-223v20q0 26 3 47t8 35q5 17 12 30l168 311l8 18q3 8 6 16.5t3 15.5v73q0 19 -7.5 36.5t-20 30t-30 20t-36.5 7.5q-20 0 -37 -7.5t-29.5 -20t-20 -30t-7.5 -36.5v-97l-20 -2v99q0 24 9 44.5t24.5 36t36 24.5t44.5 9t44.5 -9t36 -24.5t24.5 -36t9 -44.5v-73
q0 -9 -3 -19.5t-7 -19.5q-4 -11 -9 -20l-168 -311q-7 -12 -11 -28q-4 -14 -7 -32.5t-3 -42.5h203z" />
    <glyph glyph-name="three" unicode="3" horiz-adv-x="325" 
d="M255 234q0 19 -7.5 36.5t-20 30t-30 20t-36.5 7.5h-15v20h15q19 0 36.5 7.5t30 20t20 29.5t7.5 37v124q0 19 -7.5 36.5t-20 30t-30 20t-36.5 7.5q-20 0 -37 -7.5t-29.5 -20t-20 -30t-7.5 -36.5v-80l-20 -2v82q0 24 9 44.5t24.5 36t36 24.5t44.5 9t44.5 -9t36 -24.5
t24.5 -36t9 -44.5v-124q0 -35 -19 -62.5t-48 -41.5q29 -14 48 -41.5t19 -62.5v-125q0 -24 -9 -44.5t-24.5 -36t-36 -24.5t-44.5 -9t-44.5 9t-36 24.5t-24.5 36t-9 44.5v80l20 2v-82q0 -20 7.5 -37t20 -29.5t29.5 -20t37 -7.5q19 0 36.5 7.5t30 20t20 29.5t7.5 37v125z" />
    <glyph glyph-name="four" unicode="4" horiz-adv-x="325" 
d="M230 675h20v-483h43v-20h-43v-172h-20v172h-202v20zM230 192v438l-182 -438h182z" />
    <glyph glyph-name="five" unicode="5" horiz-adv-x="322" 
d="M51 332v343h212v-20h-192v-295q16 23 40.5 36t53.5 13q24 0 44.5 -9t36 -24.5t24.5 -36t9 -44.5v-186q0 -24 -9 -44.5t-24.5 -36t-36 -24.5t-44.5 -9t-44.5 9t-36 24.5t-24.5 36t-9 44.5v76l20 2v-78q0 -20 7.5 -37t20 -29.5t29.5 -20t37 -7.5q19 0 36.5 7.5t30 20
t20 29.5t7.5 37v186q0 19 -7.5 36.5t-20 30t-30 20t-36.5 7.5q-31 0 -55 -17.5t-34 -45.5z" />
    <glyph glyph-name="six" unicode="6" horiz-adv-x="334" 
d="M58 566q0 24 9 44.5t24.5 36t36 24.5t44.5 9t44.5 -9t36 -24.5t24.5 -36t9 -44.5v-71l-20 -2v73q0 19 -7.5 36.5t-20 30t-30 20t-36.5 7.5q-20 0 -37 -7.5t-29.5 -20t-20 -30t-7.5 -36.5v-224q16 23 40.5 36t53.5 13q24 0 44.5 -9t36 -24.5t24.5 -36t9 -44.5v-168
q0 -24 -9 -44.5t-24.5 -36t-36 -24.5t-44.5 -9t-44.5 9t-36 24.5t-24.5 36t-9 44.5v457zM78 109q0 -20 7.5 -37t20 -29.5t29.5 -20t37 -7.5q19 0 36.5 7.5t30 20t20 29.5t7.5 37v168q0 19 -7.5 36.5t-20 30t-30 20t-36.5 7.5q-20 0 -37 -7.5t-29.5 -20t-20 -30t-7.5 -36.5
v-168z" />
    <glyph glyph-name="seven" unicode="7" horiz-adv-x="273" 
d="M251 675v-10l-169 -665h-20l166 655h-199v20h222z" />
    <glyph glyph-name="eight" unicode="8" horiz-adv-x="328" 
d="M164 338q-20 0 -37 -7.5t-29.5 -20t-20 -30t-7.5 -36.5v-135q0 -20 7.5 -37t20 -29.5t29.5 -20t37 -7.5q19 0 36.5 7.5t30 20t20 29.5t7.5 37v135q0 19 -7.5 36.5t-20 30t-30 20t-36.5 7.5zM164 358q19 0 36.5 7.5t30 20t20 29.5t7.5 37v114q0 19 -7.5 36.5t-20 30
t-30 20t-36.5 7.5q-20 0 -37 -7.5t-29.5 -20t-20 -30t-7.5 -36.5v-114q0 -20 7.5 -37t20 -29.5t29.5 -20t37 -7.5zM50 566q0 24 9 44.5t24.5 36t36 24.5t44.5 9t44.5 -9t36 -24.5t24.5 -36t9 -44.5v-114q0 -35 -19 -62.5t-48 -41.5q29 -14 48 -41.5t19 -62.5v-135
q0 -24 -9 -44.5t-24.5 -36t-36 -24.5t-44.5 -9t-44.5 9t-36 24.5t-24.5 36t-9 44.5v135q0 35 19 62.5t48 41.5q-29 14 -48 41.5t-19 62.5v114z" />
    <glyph glyph-name="nine" unicode="9" horiz-adv-x="334" 
d="M276 109q0 -24 -9 -44.5t-24.5 -36t-36 -24.5t-44.5 -9t-44.5 9t-36 24.5t-24.5 36t-9 44.5v71l20 2v-73q0 -20 7.5 -37t20 -29.5t29.5 -20t37 -7.5q19 0 36.5 7.5t30 20t20 29.5t7.5 37v224q-16 -23 -40.5 -36t-53.5 -13q-24 0 -44.5 9t-36 24.5t-24.5 36t-9 44.5v168
q0 24 9 44.5t24.5 36t36 24.5t44.5 9t44.5 -9t36 -24.5t24.5 -36t9 -44.5v-457zM256 566q0 19 -7.5 36.5t-20 30t-30 20t-36.5 7.5q-20 0 -37 -7.5t-29.5 -20t-20 -30t-7.5 -36.5v-168q0 -20 7.5 -37t20 -29.5t29.5 -20t37 -7.5q19 0 36.5 7.5t30 20t20 29.5t7.5 37v168z
" />
    <glyph glyph-name="colon" unicode=":" horiz-adv-x="120" 
d="M50 70h20v-70h-20v70zM50 410h20v-70h-20v70z" />
    <glyph glyph-name="semicolon" unicode=";" horiz-adv-x="140" 
d="M83 0q0 -22 -12 -37t-29 -15v15q9 0 15 11t6 26v70h20v-70zM63 410h20v-70h-20v70z" />
    <glyph glyph-name="less" unicode="&#x3c;" horiz-adv-x="264" 
d="M33 313l159 169h24l-159 -169l159 -169h-24z" />
    <glyph glyph-name="equal" unicode="=" 
d="M52 251h178v-20h-178v20zM52 395h178v-20h-178v20z" />
    <glyph glyph-name="greater" unicode="&#x3e;" horiz-adv-x="264" 
d="M72 144h-24l159 169l-159 169h24l159 -169z" />
    <glyph glyph-name="question" unicode="?" horiz-adv-x="311" 
d="M129 70h20v-70h-20v70zM54 472l-20 -2v88q0 25 9.5 47.5t26 39t39 26t47.5 9.5t47.5 -9.5t39 -26t26 -39t9.5 -47.5v-78q0 -13 -4 -25.5t-9 -22.5q-6 -12 -13 -23l-85 -117q-5 -7 -9 -16q-4 -8 -6.5 -18.5t-2.5 -24.5v-106h-20v106q0 17 3 30t7 22q4 11 11 19l85 117
q6 9 11 19q5 8 8.5 18.5t3.5 21.5v78q0 21 -8 39.5t-22 32.5t-32.5 22t-39.5 8t-39.5 -8t-32.5 -22t-22 -32.5t-8 -39.5v-86z" />
    <glyph glyph-name="at" unicode="@" horiz-adv-x="505" 
d="M248 -5q-19 0 -36 7t-29.5 19.5t-19.5 29.5t-7 36v314q0 19 7 36t19 29.5t28.5 19.5t34.5 7q23 0 43 -11.5t32 -30.5l4 37h16v-429q0 -18 13 -31t31 -13t31 13t13 31v342q0 37 -14 70t-38.5 57.5t-57.5 38.5t-70 14t-70 -14t-57.5 -38.5t-38.5 -57.5t-14 -70v-310
q0 -37 14 -70t38.5 -57.5t57.5 -38.5t70 -14h120v-20h-120q-41 0 -77.5 16t-63.5 43t-43 63.5t-16 78.5v309q0 41 16 77.5t43 63.5t63.5 43t77.5 16t77.5 -16t63.5 -43t43 -63.5t16 -77.5v-342q0 -26 -19 -45t-45 -19q-20 0 -36 11.5t-24 28.5q-12 -18 -32 -29t-44 -11z
M176 87q0 -30 21 -51t51 -21q29 0 49.5 19t22.5 47v320q0 30 -21 51t-51 21t-51 -21t-21 -51v-314z" />
    <glyph glyph-name="A" unicode="A" horiz-adv-x="308" 
d="M285 0h-20l-32 189h-158l-32 -189h-20l115 675h32zM78 209h151l-74 442h-2z" />
    <glyph glyph-name="B" unicode="B" horiz-adv-x="332" 
d="M284 126q0 -26 -10 -49t-27 -40t-40 -27t-49 -10h-97v675h97q26 0 49 -10t40 -27t27 -40t10 -49v-95q0 -40 -21.5 -71t-55.5 -45q34 -14 55.5 -45.5t21.5 -70.5v-96zM81 328v-308h77q45 0 75.5 30.5t30.5 75.5v96q0 45 -30.5 75.5t-75.5 30.5h-77zM264 549
q0 45 -30.5 75.5t-75.5 30.5h-77v-307h77q45 0 75.5 30.5t30.5 75.5v95z" />
    <glyph glyph-name="C" unicode="C" horiz-adv-x="330" 
d="M284 212v-103q0 -24 -9 -44.5t-24.5 -36t-36 -24.5t-44.5 -9t-44.5 9t-36 24.5t-24.5 36t-9 44.5v457q0 24 9 44.5t24.5 36t36 24.5t44.5 9t44.5 -9t36 -24.5t24.5 -36t9 -44.5v-115l-20 -2v117q0 19 -7.5 36.5t-20 30t-30 20t-36.5 7.5q-20 0 -37 -7.5t-29.5 -20
t-20 -30t-7.5 -36.5v-457q0 -20 7.5 -37t20 -29.5t29.5 -20t37 -7.5q19 0 36.5 7.5t30 20t20 29.5t7.5 37v103h20z" />
    <glyph glyph-name="D" unicode="D" horiz-adv-x="345" 
d="M289 126q0 -26 -10 -49t-27 -40t-40 -27t-49 -10h-102v675h102q26 0 49 -10t40 -27t27 -40t10 -49v-423zM81 20h82q45 0 75.5 30.5t30.5 75.5v423q0 45 -30.5 75.5t-75.5 30.5h-82v-635z" />
    <glyph glyph-name="E" unicode="E" horiz-adv-x="283" 
d="M61 675h184v-20h-164v-307h121v-21h-121v-307h172v-20h-192v675z" />
    <glyph glyph-name="F" unicode="F" horiz-adv-x="277" 
d="M61 0v675h184v-20h-164v-307h121v-21h-121v-327h-20z" />
    <glyph glyph-name="G" unicode="G" horiz-adv-x="335" 
d="M264 310h-94v20h114v-335l-20 5v44q-16 -23 -40.5 -36t-53.5 -13q-24 0 -44.5 9t-36 24.5t-24.5 36t-9 44.5v457q0 24 9 44.5t24.5 36t36 24.5t44.5 9t44.5 -9t36 -24.5t24.5 -36t9 -44.5v-95l-20 -2v97q0 19 -7.5 36.5t-20 30t-30 20t-36.5 7.5q-20 0 -37 -7.5
t-29.5 -20t-20 -30t-7.5 -36.5v-457q0 -20 7.5 -37t20 -29.5t29.5 -20t37 -7.5q19 0 36.5 7.5t30 20t20 29.5t7.5 37v201z" />
    <glyph glyph-name="H" unicode="H" horiz-adv-x="350" 
d="M269 328h-188v-328h-20v675h20v-327h188v327h20v-675h-20v328z" />
    <glyph glyph-name="I" unicode="I" horiz-adv-x="142" 
d="M61 675h20v-675h-20v675z" />
    <glyph glyph-name="J" unicode="J" horiz-adv-x="320" 
d="M261 675v-566q0 -24 -9 -44.5t-24.5 -36t-36 -24.5t-44.5 -9t-44.5 9t-36 24.5t-24.5 36t-9 44.5v84l20 2v-86q0 -39 27.5 -66.5t66.5 -27.5q19 0 36.5 7.5t30 20t20 29.5t7.5 37v566h20z" />
    <glyph glyph-name="K" unicode="K" horiz-adv-x="320" 
d="M276 675h20l-124 -337l124 -338h-20l-120 328h-75v-328h-20v675h20v-327h75z" />
    <glyph glyph-name="L" unicode="L" horiz-adv-x="271" 
d="M61 675h20v-655h163v-20h-183v675z" />
    <glyph glyph-name="M" unicode="M" horiz-adv-x="446" 
d="M365 631h-2l-129 -631h-22l-129 631h-2v-631h-20v675h33l128 -626h2l128 626h33v-675h-20v631z" />
    <glyph glyph-name="N" unicode="N" horiz-adv-x="366" 
d="M285 63v612h20v-675h-20l-202 644h-2v-644h-20v675h31z" />
    <glyph glyph-name="O" unicode="O" horiz-adv-x="340" 
d="M284 109q0 -24 -9 -44.5t-24.5 -36t-36 -24.5t-44.5 -9t-44.5 9t-36 24.5t-24.5 36t-9 44.5v457q0 24 9 44.5t24.5 36t36 24.5t44.5 9t44.5 -9t36 -24.5t24.5 -36t9 -44.5v-457zM264 566q0 19 -7.5 36.5t-20 30t-30 20t-36.5 7.5q-20 0 -37 -7.5t-29.5 -20t-20 -30
t-7.5 -36.5v-457q0 -20 7.5 -37t20 -29.5t29.5 -20t37 -7.5q19 0 36.5 7.5t30 20t20 29.5t7.5 37v457z" />
    <glyph glyph-name="P" unicode="P" horiz-adv-x="320" 
d="M61 0v675h97q26 0 49 -10t40 -27t27 -40t10 -49v-113q0 -26 -10 -49t-27 -40t-40 -27t-49 -10h-77v-310h-20zM81 330h77q45 0 75.5 30.5t30.5 75.5v113q0 45 -30.5 75.5t-75.5 30.5h-77v-325z" />
    <glyph glyph-name="Q" unicode="Q" horiz-adv-x="341" 
d="M161 -4q-44 4 -74 36t-30 77v457q0 24 9 44.5t24.5 36t36 24.5t44.5 9t44.5 -9t36 -24.5t24.5 -36t9 -44.5v-457q0 -23 -8 -42.5t-22 -34.5t-33 -24.5t-41 -11.5v-91l-20 -3v94zM265 566q0 19 -7.5 36.5t-20 30t-30 20t-36.5 7.5q-20 0 -37 -7.5t-29.5 -20t-20 -30
t-7.5 -36.5v-457q0 -20 7.5 -37t20 -29.5t29.5 -20t37 -7.5q19 0 36.5 7.5t30 20t20 29.5t7.5 37v457z" />
    <glyph glyph-name="R" unicode="R" horiz-adv-x="334" 
d="M264 0v222q0 45 -30.5 75.5t-75.5 30.5h-77v-328h-20v675h97q26 0 49 -10t40 -27t27 -40t10 -49v-95q0 -40 -21.5 -71t-55.5 -45q34 -14 55.5 -45.5t21.5 -70.5v-222h-20zM264 549q0 45 -30.5 75.5t-75.5 30.5h-77v-307h77q45 0 75.5 30.5t30.5 75.5v95z" />
    <glyph glyph-name="S" unicode="S" horiz-adv-x="320" 
d="M46 223l20 2v-116q0 -20 7.5 -37t20 -29.5t29.5 -20t37 -7.5q19 0 36.5 7.5t30 20t20 29.5t7.5 37v87q0 9 -2.5 16.5t-5.5 13.5q-4 6 -7 12l-173 206q-6 7 -10 16q-4 8 -7 17.5t-3 21.5v67q0 24 9 44.5t24.5 36t36 24.5t44.5 9t44.5 -9t36 -24.5t24.5 -36t9 -44.5v-99
l-20 -2v101q0 19 -7.5 36.5t-20 30t-30 20t-36.5 7.5q-20 0 -37 -7.5t-29.5 -20t-20 -30t-7.5 -36.5v-67q0 -18 7 -30q4 -7 8 -12l173 -206q6 -7 10 -16q4 -8 7 -18t3 -21v-87q0 -24 -9 -44.5t-24.5 -36t-36 -24.5t-44.5 -9t-44.5 9t-36 24.5t-24.5 36t-9 44.5v114z" />
    <glyph glyph-name="T" unicode="T" horiz-adv-x="260" 
d="M26 675h208v-20h-93v-655h-21v655h-94v20z" />
    <glyph glyph-name="U" unicode="U" horiz-adv-x="346" 
d="M287 675v-566q0 -24 -9 -44.5t-24.5 -36t-36 -24.5t-44.5 -9t-44.5 9t-36 24.5t-24.5 36t-9 44.5v566h20v-566q0 -20 7.5 -37t20 -29.5t29.5 -20t37 -7.5q19 0 36.5 7.5t30 20t20 29.5t7.5 37v566h20z" />
    <glyph glyph-name="V" unicode="V" horiz-adv-x="308" 
d="M265 675h20l-115 -675h-32l-115 675h20l110 -651h2z" />
    <glyph glyph-name="W" unicode="W" horiz-adv-x="466" 
d="M311 24h2l110 651h20l-115 -675h-32l-62 369h-2l-62 -369h-32l-115 675h20l110 -651h2l68 403l-42 248h20z" />
    <glyph glyph-name="X" unicode="X" horiz-adv-x="310" 
d="M44 0h-20l121 337l-121 338h20l110 -312h2l110 312h20l-121 -338l121 -337h-20l-110 312h-2z" />
    <glyph glyph-name="Y" unicode="Y" horiz-adv-x="298" 
d="M139 337l-121 338h20l110 -312h2l110 312h20l-121 -338v-337h-20v337z" />
    <glyph glyph-name="Z" unicode="Z" 
d="M36 675h216v-10l-203 -645h203v-20h-226v10l203 645h-193v20z" />
    <glyph glyph-name="bracketleft" unicode="[" horiz-adv-x="205" 
d="M60 775h116v-20h-96v-875h96v-20h-116v915z" />
    <glyph glyph-name="backslash" unicode="\" horiz-adv-x="288" 
d="M17 729h20l234 -783h-20z" />
    <glyph glyph-name="bracketright" unicode="]" horiz-adv-x="205" 
d="M145 -140h-116v20h96v875h-96v20h116v-915z" />
    <glyph glyph-name="asciicircum" unicode="^" horiz-adv-x="360" 
d="M316 608v-24l-136 127l-136 -127v24l136 127z" />
    <glyph glyph-name="underscore" unicode="_" horiz-adv-x="339" 
d="M49 -5h241v-20h-241v20z" />
    <glyph glyph-name="grave" unicode="`" horiz-adv-x="138" 
d="M20 591l98 -44v-20l-98 44v20z" />
    <glyph glyph-name="a" unicode="a" horiz-adv-x="275" 
d="M202 277q-5 -6 -10 -10.5t-9 -7.5q-4 -4 -9 -6l-92 -53q-7 -5 -12 -11q-5 -5 -8.5 -12.5t-3.5 -18.5v-71q0 -30 21 -51t51 -21t51 21t21 51v190zM202 407q0 27 -19.5 46.5t-46.5 19.5t-46.5 -19.5t-19.5 -46.5v-78l-20 -2v80q0 18 7 33.5t18.5 27t27 18.5t33.5 7t33.5 -7
t27 -18.5t18.5 -27t7 -33.5v-369q0 -8 5 -13t13 -5v-20q-14 0 -24.5 8.5t-12.5 21.5q-13 -16 -32 -25.5t-41 -9.5q-19 0 -36 7t-29.5 19.5t-19.5 29.5t-7 36v71q0 15 5 26t12 19q7 9 17 15l92 53q10 6 19 15q7 8 13 17.5t6 22.5v81z" />
    <glyph glyph-name="b" unicode="b" horiz-adv-x="286" 
d="M217 401q0 30 -21 51t-51 21t-51 -21t-21 -51v-314q0 -30 21 -51t51 -21t51 21t21 51v314zM237 87q0 -19 -7 -36t-19 -29.5t-28.5 -19.5t-34.5 -7q-23 0 -43 11.5t-32 30.5l-4 -37h-16v673l20 2v-224q12 19 32 30.5t43 11.5q18 0 34.5 -7t28.5 -19.5t19 -29.5t7 -36v-314
z" />
    <glyph glyph-name="c" unicode="c" horiz-adv-x="274" 
d="M233 161v-74q0 -19 -7 -36t-19.5 -29.5t-29.5 -19.5t-36 -7t-36 7t-29.5 19.5t-19.5 29.5t-7 36v314q0 19 7 36t19.5 29.5t29.5 19.5t36 7t36 -7t29.5 -19.5t19.5 -29.5t7 -36v-77l-20 -2v79q0 30 -21 51t-51 21t-51 -21t-21 -51v-314q0 -30 21 -51t51 -21t51 21t21 51
v74h20z" />
    <glyph glyph-name="d" unicode="d" horiz-adv-x="286" 
d="M69 87q0 -30 21 -51t51 -21t51 21t21 51v314q0 30 -21 51t-51 21t-51 -21t-21 -51v-314zM49 401q0 19 7 36t19 29.5t28.5 19.5t34.5 7q23 0 43 -11.5t32 -30.5v222l20 2v-675h-16l-4 37q-12 -19 -32 -30.5t-43 -11.5q-18 0 -34.5 7t-28.5 19.5t-19 29.5t-7 36v314z" />
    <glyph glyph-name="e" unicode="e" horiz-adv-x="276" 
d="M233 167v-80q0 -19 -7 -36t-19.5 -29.5t-29.5 -19.5t-36 -7t-36 7t-29.5 19.5t-19.5 29.5t-7 36v314q0 19 7 36t19.5 29.5t29.5 19.5t36 7t36 -7t29.5 -19.5t19.5 -29.5t7 -36v-150h-164v-164q0 -30 21 -51t51 -21t51 21t21 51v78zM213 401q0 30 -21 51t-51 21t-51 -21
t-21 -51v-130h144v130z" />
    <glyph glyph-name="f" unicode="f" horiz-adv-x="174" 
d="M145 655q-22 0 -37 -15t-15 -37v-115h63v-20h-63v-468h-20v468h-54v20h54v115q0 30 21 51t51 21h11v-20h-11z" />
    <glyph glyph-name="g" unicode="g" horiz-adv-x="269" 
d="M134 84q19 0 36 -7t29.5 -19.5t19.5 -29.5t7 -36v-62q0 -19 -7 -36t-19.5 -29.5t-29.5 -19.5t-36 -7t-36 7t-29.5 19.5t-19.5 29.5t-7 36v62q0 28 15 50.5t39 33.5q-11 8 -18 21.5t-7 29.5t7 29t18 22q-24 11 -39 33t-15 51v139q0 19 7 36t19 29.5t28.5 19.5t34.5 7
q23 0 43 -11.5t32 -30.5l4 37h16v-226q0 -19 -7 -36t-19.5 -29.5t-29.5 -19.5t-36 -7q-18 0 -30.5 -12.5t-12.5 -30.5t12.5 -30.5t30.5 -12.5zM62 262q0 -30 21 -51t51 -21t51 21t21 51v139q0 30 -21 51t-51 21t-51 -21t-21 -51v-139zM62 -70q0 -30 21 -51t51 -21t51 21
t21 51v62q0 30 -21 51t-51 21t-51 -21t-21 -51v-62z" />
    <glyph glyph-name="h" unicode="h" horiz-adv-x="289" 
d="M237 0h-20v401q0 30 -21 51t-51 21t-51 -21t-21 -51v-401h-20v673l20 2v-224q12 19 32 30.5t43 11.5q18 0 34.5 -7t28.5 -19.5t19 -29.5t7 -36v-401z" />
    <glyph glyph-name="i" unicode="i" horiz-adv-x="126" 
d="M73 0h-20v488h20v-488zM53 614h20v-70h-20v70z" />
    <glyph glyph-name="j" unicode="j" horiz-adv-x="126" 
d="M1 -142q22 0 37 15t15 37v578h20v-578q0 -30 -21 -51t-51 -21h-11v20h11zM53 614h20v-70h-20v70z" />
    <glyph glyph-name="k" unicode="k" horiz-adv-x="274" 
d="M53 673l20 2v-395h61l94 208h21l-98 -218l98 -270h-21l-95 260h-60v-260h-20v673z" />
    <glyph glyph-name="l" unicode="l" horiz-adv-x="135" 
d="M56 673l20 2v-640q0 -8 6 -14t14 -6v-20q-17 0 -28.5 11.5t-11.5 28.5v638z" />
    <glyph glyph-name="m" unicode="m" horiz-adv-x="453" 
d="M217 401q0 30 -21 51t-51 21t-51 -21t-21 -51v-401h-20v488h16l4 -37q12 19 32 30.5t43 11.5q26 0 47 -13.5t32 -36.5q11 23 33 36.5t49 13.5q19 0 36 -7t29.5 -19.5t19.5 -29.5t7 -36v-401h-20v401q0 30 -21 51t-51 21t-51 -21t-21 -51v-401h-20v401z" />
    <glyph glyph-name="n" unicode="n" horiz-adv-x="289" 
d="M237 0h-20v401q0 30 -21 51t-51 21t-51 -21t-21 -51v-401h-20v488h16l4 -37q12 19 32 30.5t43 11.5q18 0 34.5 -7t28.5 -19.5t19 -29.5t7 -36v-401z" />
    <glyph glyph-name="o" unicode="o" 
d="M213 401q0 30 -21 51t-51 21t-51 -21t-21 -51v-314q0 -30 21 -51t51 -21t51 21t21 51v314zM233 87q0 -19 -7 -36t-19.5 -29.5t-29.5 -19.5t-36 -7t-36 7t-29.5 19.5t-19.5 29.5t-7 36v314q0 19 7 36t19.5 29.5t29.5 19.5t36 7t36 -7t29.5 -19.5t19.5 -29.5t7 -36v-314z
" />
    <glyph glyph-name="p" unicode="p" horiz-adv-x="286" 
d="M217 401q0 30 -21 51t-51 21t-51 -21t-21 -51v-314q0 -30 21 -51t51 -21t51 21t21 51v314zM237 87q0 -19 -7 -36t-19 -29.5t-28.5 -19.5t-34.5 -7q-23 0 -43 11.5t-32 30.5v-197l-20 -2v650h16l4 -37q12 19 32 30.5t43 11.5q18 0 34.5 -7t28.5 -19.5t19 -29.5t7 -36v-314
z" />
    <glyph glyph-name="q" unicode="q" horiz-adv-x="286" 
d="M69 87q0 -30 21 -51t51 -21t51 21t21 51v314q0 30 -21 51t-51 21t-51 -21t-21 -51v-314zM49 401q0 19 7 36t19 29.5t28.5 19.5t34.5 7q23 0 43 -11.5t32 -30.5l4 37h16v-648l-20 -2v199q-12 -19 -32 -30.5t-43 -11.5q-18 0 -34.5 7t-28.5 19.5t-19 29.5t-7 36v314z" />
    <glyph glyph-name="r" unicode="r" horiz-adv-x="186" 
d="M170 473h-25q-30 0 -51 -21t-21 -51v-401h-20v488h16l4 -37q12 19 33 30.5t64 11.5v-20z" />
    <glyph glyph-name="s" unicode="s" horiz-adv-x="264" 
d="M85 307q26 -23 53 -44.5t53 -44.5q9 -8 16 -19q6 -9 11.5 -20.5t5.5 -25.5v-66q0 -19 -7 -36t-19.5 -29.5t-29.5 -19.5t-36 -7t-36 7t-29.5 19.5t-19.5 29.5t-7 36v68l20 2v-70q0 -30 21 -51t51 -21t51 21t21 51v66q0 10 -4 19t-9 16q-6 8 -13 14l-106 89q-8 7 -14 17
q-5 8 -9.5 19t-4.5 25v53q0 37 25.5 62.5t62.5 25.5t62.5 -25.5t25.5 -62.5v-65l-20 -2v67q0 29 -19.5 48.5t-48.5 19.5t-48.5 -19.5t-19.5 -48.5v-53q0 -11 3 -19t7 -14q4 -7 11 -12z" />
    <glyph glyph-name="t" unicode="t" horiz-adv-x="182" 
d="M18 488h63v98l20 2v-100h63v-20h-63v-433q0 -8 6 -14t14 -6v-20q-17 0 -28.5 11.5t-11.5 28.5v433h-63v20z" />
    <glyph glyph-name="u" unicode="u" horiz-adv-x="289" 
d="M52 488h20v-401q0 -30 21 -51t51 -21t51 21t21 51v401h20v-488h-16l-4 37q-12 -19 -32 -30.5t-43 -11.5q-18 0 -34.5 7t-28.5 19.5t-19 29.5t-7 36v401z" />
    <glyph glyph-name="v" unicode="v" horiz-adv-x="246" 
d="M27 488h21l74 -468h2l74 468h21l-79 -488h-34z" />
    <glyph glyph-name="w" unicode="w" horiz-adv-x="374" 
d="M188 290h-2l-46 -290h-34l-79 488h20l75 -468h2l53 331l-22 137h20l75 -468h2l75 468h20l-79 -488h-34z" />
    <glyph glyph-name="x" unicode="x" horiz-adv-x="248" 
d="M47 0h-21l87 244l-87 244h21l76 -216h2l76 216h21l-87 -244l87 -244h-21l-76 216h-2z" />
    <glyph glyph-name="y" unicode="y" horiz-adv-x="245" 
d="M47 -142q16 0 26 8t16 19q7 12 10 28l14 81l-87 494h21l75 -437h2l75 437h21l-101 -575q-4 -21 -14 -38q-8 -14 -22 -25.5t-36 -11.5v20z" />
    <glyph glyph-name="z" unicode="z" horiz-adv-x="222" 
d="M30 488h162v-10l-138 -458h138v-20h-162v10l138 458h-138v20z" />
    <glyph glyph-name="braceleft" unicode="{" horiz-adv-x="192" 
d="M103 -100q0 -8 6 -14t14 -6h40v-20h-40q-17 0 -28.5 11.5t-11.5 28.5v387q0 8 -6 14t-14 6h-39v21h39q8 0 14 6t6 14v387q0 17 11.5 28.5t28.5 11.5h40v-20h-40q-8 0 -14 -6t-6 -14v-387q0 -18 -14 -30v-1q14 -12 14 -30v-387z" />
    <glyph glyph-name="bar" unicode="|" horiz-adv-x="142" 
d="M61 775h20v-843l-20 -2v845z" />
    <glyph glyph-name="braceright" unicode="}" horiz-adv-x="192" 
d="M89 287q0 18 14 30v1q-14 12 -14 30v387q0 8 -6 14t-14 6h-40v20h40q17 0 28.5 -11.5t11.5 -28.5v-387q0 -8 6 -14t14 -6h39v-21h-39q-8 0 -14 -6t-6 -14v-387q0 -17 -11.5 -28.5t-28.5 -11.5h-40v20h40q8 0 14 6t6 14v387z" />
    <glyph glyph-name="asciitilde" unicode="~" horiz-adv-x="382" 
d="M49 280q0 32 22 54t54 22t54 -22t22 -54q0 -23 16.5 -39.5t39.5 -16.5t39.5 16.5t16.5 39.5v13h20v-13q0 -32 -22 -54t-54 -22t-54 22t-22 54q0 23 -16.5 39.5t-39.5 16.5t-39.5 -16.5t-16.5 -39.5v-13h-20v13z" />
    <glyph glyph-name="exclamdown" unicode="&#xa1;" horiz-adv-x="144" 
d="M62 605.004h20v69.9961h-20v-69.9961zM62 0.0410156h20v547.967h-20v-547.967z" />
    <glyph glyph-name="cent" unicode="&#xa2;" horiz-adv-x="279" 
d="M234 161v-74q0 -36 -23.5 -62t-58.5 -29v-66l-20 -2v68q-35 3 -58.5 29t-23.5 62v314q0 35 23.5 61t58.5 30v66l20 2v-68q34 -4 58 -30t24 -61v-77l-20 -2v79q0 30 -21 51t-51 21t-51 -21t-21 -51v-314q0 -30 21 -51t51 -21t51 21t21 51v74h20z" />
    <glyph glyph-name="sterling" unicode="&#xa3;" horiz-adv-x="340" 
d="M38 368h82v223q0 37 26 63t63 26t63 -26t26 -63h-20q0 29 -20 49t-49 20t-49 -20t-20 -49v-223h106v-20h-106v-246q0 -26 -11.5 -47t-30.5 -35h98q34 0 58 24t24 58h20q0 -21 -8 -39.5t-22 -32.5t-32.5 -22t-39.5 -8h-158v20q34 0 58 24t24 58v246h-82v20z" />
    <glyph glyph-name="currency" unicode="&#xa4;" horiz-adv-x="428" 
d="M329 457q18 -20 28 -45.5t10 -54.5t-10.5 -55t-27.5 -46l54 -54l-14 -14l-54 54q-20 -18 -46.5 -28.5t-55.5 -10.5t-55 10t-46 28l-53 -53l-14 14l53 53q-18 20 -28.5 46.5t-10.5 55.5t10 55t28 46l-52 53l14 14l52 -53q20 18 46.5 28.5t55.5 10.5t55.5 -10.5t46.5 -29.5
l54 54l14 -14zM79 357q0 -28 10.5 -52.5t28.5 -42.5t42.5 -28.5t52.5 -10.5t52.5 10.5t42.5 28.5t28.5 42.5t10.5 52.5t-10.5 52.5t-28.5 42.5t-42.5 28.5t-52.5 10.5t-52.5 -10.5t-42.5 -28.5t-28.5 -42.5t-10.5 -52.5z" />
    <glyph glyph-name="yen" unicode="&#xa5;" horiz-adv-x="322" 
d="M51 337h100l-121 338h20l110 -312h2l110 312h20l-121 -338h100v-20h-100v-84h100v-20h-100v-213h-20v213h-100v20h100v84h-100v20z" />
    <glyph glyph-name="brokenbar" unicode="&#xa6;" horiz-adv-x="143" 
d="M62 729h20v-333l-20 -2v335zM62 291h20v-333l-20 -2v335z" />
    <glyph glyph-name="section" unicode="&#xa7;" horiz-adv-x="291" 
d="M48 20l17 2v-99q0 -33 23.5 -56.5t56.5 -23.5t56.5 23.5t23.5 56.5v74q0 8 -2.5 14.5t-4.5 11.5l-6 10l-147 175q-5 6 -9 13q-3 6 -5.5 14.5t-2.5 19.5v57q0 35 22 61.5t55 33.5l-60 72q-5 6 -9 13q-3 6 -5.5 14.5t-2.5 19.5v57q0 20 7.5 37.5t20.5 31t31 21t38 7.5
t38 -7.5t31 -21t20.5 -31t7.5 -37.5v-84l-17 -2v86q0 33 -23.5 56.5t-56.5 23.5t-56.5 -23.5t-23.5 -56.5v-57q0 -8 2 -14.5t4 -11.5q3 -5 7 -10l147 -175q4 -6 8 -13q3 -6 6 -15t3 -19v-74q0 -32 -18.5 -57t-47.5 -35l49 -58q4 -6 8 -13q3 -6 6 -15t3 -19v-74
q0 -20 -7.5 -37.5t-20.5 -31t-31 -21t-38 -7.5t-38 7.5t-31 21t-20.5 31t-7.5 37.5v97zM65 255q0 -8 2 -14.5t4 -11.5q3 -5 7 -10l86 -103q26 7 43.5 28.5t17.5 49.5v74q0 8 -2.5 14.5t-4.5 11.5l-6 10l-74 88q-31 -2 -52 -25t-21 -55v-57z" />
    <glyph glyph-name="dieresis" unicode="&#xa8;" horiz-adv-x="136" 
d="M20 596h20v-51h-20v51zM96 596h20v-51h-20v51z" />
    <glyph glyph-name="copyright" unicode="&#xa9;" horiz-adv-x="570" 
d="M35 320q0 52 19.5 97.5t53.5 79.5t79.5 53.5t97.5 19.5t97.5 -19.5t79.5 -53.5t53.5 -79.5t19.5 -97.5t-19.5 -97.5t-53.5 -79.5t-79.5 -53.5t-97.5 -19.5t-97.5 19.5t-79.5 53.5t-53.5 79.5t-19.5 97.5zM55 320q0 -48 18 -89.5t49.5 -73t73 -49.5t89.5 -18t89.5 18
t73 49.5t49.5 73t18 89.5t-18 89.5t-49.5 73t-73 49.5t-89.5 18t-89.5 -18t-73 -49.5t-49.5 -73t-18 -89.5zM342 271h20v-17q0 -32 -22.5 -54.5t-54.5 -22.5t-54.5 22.5t-22.5 54.5v132q0 32 22.5 54.5t54.5 22.5t54.5 -22.5t22.5 -54.5v-24l-20 -2v26q0 23 -17 40t-40 17
t-40 -17t-17 -40v-132q0 -23 17 -40t40 -17t40 17t17 40v17z" />
    <glyph glyph-name="ordfeminine" unicode="&#xaa;" horiz-adv-x="252" 
d="M170 524q-9 -9 -13 -12t-7 -5l-64 -37q-5 -3 -9 -7q-3 -4 -5.5 -9.5t-2.5 -12.5v-50q0 -21 15 -35.5t36 -14.5t35.5 14.5t14.5 35.5v133zM170 615q0 19 -13.5 32.5t-32.5 13.5t-32.5 -13.5t-13.5 -32.5v-55l-14 -1v56q0 25 17.5 42.5t42.5 17.5t42.5 -17.5t17.5 -42.5
v-258q0 -13 13 -13v-14q-11 0 -17.5 6t-8.5 15q-19 -24 -51 -24q-27 0 -46 18.5t-19 45.5v50q0 11 3.5 18.5t8.5 12.5q5 6 12 11l64 37q7 4 13 10q5 5 9.5 12t4.5 16v57z" />
    <glyph glyph-name="guillemotleft" unicode="&#xab;" horiz-adv-x="299" 
d="M36 249l99 169h22l-99 -169l99 -169h-22zM133 249l99 169h22l-99 -169l99 -169h-22z" />
    <glyph glyph-name="logicalnot" unicode="&#xac;" horiz-adv-x="505" 
d="M53 355h400v-182l-20 -2v164h-380v20z" />
    <glyph glyph-name="registered" unicode="&#xae;" horiz-adv-x="570" 
d="M35 320q0 52 19.5 97.5t53.5 79.5t79.5 53.5t97.5 19.5t97.5 -19.5t79.5 -53.5t53.5 -79.5t19.5 -97.5t-19.5 -97.5t-53.5 -79.5t-79.5 -53.5t-97.5 -19.5t-97.5 19.5t-79.5 53.5t-53.5 79.5t-19.5 97.5zM55 320q0 -48 18 -89.5t49.5 -73t73 -49.5t89.5 -18t89.5 18
t73 49.5t49.5 73t18 89.5t-18 89.5t-49.5 73t-73 49.5t-89.5 18t-89.5 -18t-73 -49.5t-49.5 -73t-18 -89.5zM342 249q0 23 -17 40t-40 17h-57v-129h-20v286h77q32 0 54.5 -22.5t22.5 -54.5v-3q0 -22 -11 -39.5t-28 -27.5q17 -10 28 -27.5t11 -39.5v-72h-20v72zM342 386
q0 23 -17 40t-40 17h-57v-117h57q23 0 40 17t17 40v3z" />
    <glyph glyph-name="macron" unicode="&#xaf;" horiz-adv-x="136" 
d="M20 595h96v-20h-96v20z" />
    <glyph glyph-name="degree" unicode="&#xb0;" horiz-adv-x="230" 
d="M38 603q0 32 22.5 54.5t54.5 22.5t54.5 -22.5t22.5 -54.5t-22.5 -54.5t-54.5 -22.5t-54.5 22.5t-22.5 54.5zM58 602q0 -23 17 -40t40 -17t40 17t17 40t-17 40t-40 17t-40 -17t-17 -40z" />
    <glyph glyph-name="plusminus" unicode="&#xb1;" horiz-adv-x="322" 
d="M52 384h99v99h20v-99h99v-20h-99v-99h-20v99h-99v20zM52 202h218v-20h-218v20z" />
    <glyph glyph-name="uni00B2" unicode="&#xb2;" horiz-adv-x="236" 
d="M47 364q0 22 7 38q4 8 8 15l92 131q3 6 6 11q2 5 4.5 10.5t2.5 10.5v30q0 21 -14.5 35.5t-35.5 14.5t-35.5 -14.5t-14.5 -35.5v-26l-20 -2v28q0 29 20.5 49.5t49.5 20.5t49.5 -20.5t20.5 -49.5v-30q0 -8 -2.5 -16t-5.5 -14l-8 -14l-92 -131l-6 -12q-2 -5 -4 -12.5
t-2 -16.5h120v-20h-140v20z" />
    <glyph glyph-name="uni00B3" unicode="&#xb3;" horiz-adv-x="231" 
d="M105 499v20h20q17 0 28.5 11.5t11.5 28.5v51q0 21 -14.5 35.5t-35.5 14.5t-35.5 -14.5t-14.5 -35.5v-20l-20 -2v22q0 29 20.5 49.5t49.5 20.5t49.5 -20.5t20.5 -49.5v-51q0 -16 -7.5 -29t-19.5 -21q12 -8 19.5 -21t7.5 -29v-50q0 -29 -20.5 -49.5t-49.5 -20.5t-49.5 20.5
t-20.5 49.5v22h20v-22q0 -21 14.5 -35.5t35.5 -14.5t35.5 14.5t14.5 35.5v50q0 17 -11.5 28.5t-28.5 11.5h-20z" />
    <glyph glyph-name="acute" unicode="&#xb4;" horiz-adv-x="138" 
d="M118 571l-98 -44v20l98 44v-20z" />
    <glyph glyph-name="mu" unicode="&#xb5;" horiz-adv-x="305" 
d="M80 87q0 -30 21 -51t51 -21t51 21t21 51v401h20v-488h-16l-4 37q-12 -19 -32 -30.5t-43 -11.5q-21 0 -38.5 9t-30.5 25v-189l-20 -2v650h20v-401z" />
    <glyph glyph-name="paragraph" unicode="&#xb6;" horiz-adv-x="427" 
d="M362 675v-675h-20v655h-84v-655h-20v310h-77q-26 0 -49 10t-40 27t-27 40t-10 49v113q0 26 10 49t27 40t40 27t49 10h201zM238 655h-77q-45 0 -75.5 -30.5t-30.5 -75.5v-113q0 -45 30.5 -75.5t75.5 -30.5h77v325z" />
    <glyph glyph-name="periodcentered" unicode="&#xb7;" horiz-adv-x="120" 
d="M50 381h20v-70h-20v70z" />
    <glyph glyph-name="cedilla" unicode="&#xb8;" horiz-adv-x="148" 
d="M62 -45v45h12v-31q18 0 31 -13t13 -31t-13 -31t-31 -13t-31 13t-13 31h14q0 -13 8.5 -21.5t21.5 -8.5t21.5 8.5t8.5 21.5t-8.5 21.5t-21.5 8.5h-12z" />
    <glyph glyph-name="uni00B9" unicode="&#xb9;" horiz-adv-x="122" 
d="M51 673l20 2v-336h-20v334z" />
    <glyph glyph-name="ordmasculine" unicode="&#xba;" horiz-adv-x="238" 
d="M169 611q0 21 -14.5 35.5t-35.5 14.5t-35.5 -14.5t-14.5 -35.5v-220q0 -21 14.5 -35.5t35.5 -14.5t35.5 14.5t14.5 35.5v220zM183 391q0 -27 -18.5 -45.5t-45.5 -18.5t-45.5 18.5t-18.5 45.5v220q0 27 18.5 45.5t45.5 18.5t45.5 -18.5t18.5 -45.5v-220z" />
    <glyph glyph-name="guillemotright" unicode="&#xbb;" horiz-adv-x="299" 
d="M164 80h-22l99 169l-99 169h22l99 -169zM67 80h-22l99 169l-99 169h22l99 -169z" />
    <glyph glyph-name="onequarter" unicode="&#xbc;" horiz-adv-x="507" 
d="M411 675l19 -11l-383 -664l-19 11zM65 673l20 2v-336h-20v334zM433 331h20v-239h22v-20h-22v-72h-20v72h-120v20zM433 92v194l-98 -194h98z" />
    <glyph glyph-name="onehalf" unicode="&#xbd;" horiz-adv-x="499" 
d="M408 675l19 -11l-383 -664l-19 11zM72 673l20 2v-336h-20v334zM320 20q0 22 7 38q4 8 8 15l92 131q3 6 6 11q2 5 4.5 10.5t2.5 10.5v30q0 21 -14.5 35.5t-35.5 14.5t-35.5 -14.5t-14.5 -35.5v-26l-20 -2v28q0 29 20.5 49.5t49.5 20.5t49.5 -20.5t20.5 -49.5v-30
q0 -8 -2.5 -16t-5.5 -14l-8 -14l-92 -131l-6 -12q-2 -5 -4 -12.5t-2 -16.5h120v-20h-140v20z" />
    <glyph glyph-name="threequarters" unicode="&#xbe;" horiz-adv-x="544" 
d="M466 675l19 -11l-383 -664l-19 11zM468 331h20v-239h22v-20h-22v-72h-20v72h-120v20zM468 92v194l-98 -194h98zM100 499v20h20q17 0 28.5 11.5t11.5 28.5v51q0 21 -14.5 35.5t-35.5 14.5t-35.5 -14.5t-14.5 -35.5v-20l-20 -2v22q0 29 20.5 49.5t49.5 20.5t49.5 -20.5
t20.5 -49.5v-51q0 -16 -7.5 -29t-19.5 -21q12 -8 19.5 -21t7.5 -29v-50q0 -29 -20.5 -49.5t-49.5 -20.5t-49.5 20.5t-20.5 49.5v22h20v-22q0 -21 14.5 -35.5t35.5 -14.5t35.5 14.5t14.5 35.5v50q0 17 -11.5 28.5t-28.5 11.5h-20z" />
    <glyph glyph-name="questiondown" unicode="&#xbf;" horiz-adv-x="310" 
d="M181.008 605.004h-19.999v69.9961h19.999v-69.9961zM256.003 203.029l19.999 1.99902v-87.9941q0 -24.999 -9.49902 -47.4971q-9.5 -22.499 -25.999 -38.998t-38.9971 -25.998q-22.499 -9.5 -47.4971 -9.5q-24.999 0 -47.4971 9.5q-22.499 9.49902 -38.998 25.998
t-25.998 38.998q-9.5 22.498 -9.5 47.4971v77.9951q0 12.999 4 25.498q4 12.5 9 22.499q5.99902 11.999 12.999 22.999l84.9941 116.992q5 7 9 15.999q4 8 6.49902 18.499q2.5 10.499 2.5 24.499v105.993h19.999v-105.993q0 -16.999 -3 -29.999q-3 -12.999 -6.99902 -21.998
q-4 -11 -11 -18.999l-84.9941 -116.993q-6 -8.99902 -11 -18.998q-4.99902 -8 -8.49902 -18.499q-3.5 -10.5 -3.5 -21.499v-77.9951q0 -20.999 8 -39.498q7.99902 -18.499 21.998 -32.498t32.498 -21.998q18.499 -8 39.498 -8q20.998 0 39.4971 8
q18.499 7.99902 32.498 21.998t21.999 32.498q7.99902 18.499 7.99902 39.498v85.9951z" />
    <glyph glyph-name="Agrave" unicode="&#xc0;" horiz-adv-x="308" 
d="M285 0h-20l-32 189h-158l-32 -189h-20l115 675h32zM78 209h151l-74 442h-2zM105 789l98 -44v-20l-98 44v20z" />
    <glyph glyph-name="Aacute" unicode="&#xc1;" horiz-adv-x="308" 
d="M285 0h-20l-32 189h-158l-32 -189h-20l115 675h32zM78 209h151l-74 442h-2zM203 769l-98 -44v20l98 44v-20z" />
    <glyph glyph-name="Acircumflex" unicode="&#xc2;" horiz-adv-x="308" 
d="M285 0h-20l-32 189h-158l-32 -189h-20l115 675h32zM78 209h151l-74 442h-2zM154 769l-68 -44v20l68 44l68 -44v-20z" />
    <glyph glyph-name="Atilde" unicode="&#xc3;" horiz-adv-x="308" 
d="M285 0h-20l-32 189h-158l-32 -189h-20l115 675h32zM78 209h151l-74 442h-2zM110 738h-20v24q0 15 11 26t26 11t26 -11t11 -26q0 -7 5 -12t12 -5t12 5t5 12v23h20v-23q0 -15 -11 -26t-26 -11t-26 11t-11 26q0 7 -5 12t-12 5t-12 -5t-5 -12v-24z" />
    <glyph glyph-name="Adieresis" unicode="&#xc4;" horiz-adv-x="308" 
d="M285 0h-20l-32 189h-158l-32 -189h-20l115 675h32zM78 209h151l-74 442h-2zM106 776h20v-51h-20v51zM182 776h20v-51h-20v51z" />
    <glyph glyph-name="Aring" unicode="&#xc5;" horiz-adv-x="308" 
d="M98 761q0 23 16.5 39.5t39.5 16.5t39.5 -16.5t16.5 -39.5t-16.5 -39.5t-39.5 -16.5t-39.5 16.5t-16.5 39.5zM114 761q0 -17 11.5 -28.5t28.5 -11.5t28.5 11.5t11.5 28.5t-11.5 28.5t-28.5 11.5t-28.5 -11.5t-11.5 -28.5zM285 0h-20l-32 189h-158l-32 -189h-20l115 675h32
zM78 209h151l-74 442h-2z" />
    <glyph glyph-name="AE" unicode="&#xc6;" horiz-adv-x="488" 
d="M449 655h-275l52 -307h180v-21h-176l52 -307h175v-20h-192l-32 189h-158l-32 -189h-20l115 675h311v-20zM78 209h151l-74 442h-2z" />
    <glyph glyph-name="Ccedilla" unicode="&#xc7;" horiz-adv-x="330" 
d="M164 -45v40q-23 1 -42.5 10.5t-34 25t-23 35.5t-8.5 43v457q0 24 9 44.5t24.5 36t36 24.5t44.5 9t44.5 -9t36 -24.5t24.5 -36t9 -44.5v-115l-20 -2v117q0 19 -7.5 36.5t-20 30t-30 20t-36.5 7.5q-20 0 -37 -7.5t-29.5 -20t-20 -30t-7.5 -36.5v-457q0 -20 7.5 -37
t20 -29.5t29.5 -20t37 -7.5q19 0 36.5 7.5t30 20t20 29.5t7.5 37v103h20v-103q0 -23 -8.5 -43t-23 -35.5t-34.5 -25t-42 -10.5v-26q18 0 31 -13t13 -31t-13 -31t-31 -13t-31 13t-13 31h14q0 -13 8.5 -21.5t21.5 -8.5t21.5 8.5t8.5 21.5t-8.5 21.5t-21.5 8.5h-12z" />
    <glyph glyph-name="Egrave" unicode="&#xc8;" horiz-adv-x="283" 
d="M61 675h184v-20h-164v-307h121v-21h-121v-307h172v-20h-192v675zM108 789l98 -44v-20l-98 44v20z" />
    <glyph glyph-name="Eacute" unicode="&#xc9;" horiz-adv-x="283" 
d="M61 675h184v-20h-164v-307h121v-21h-121v-307h172v-20h-192v675zM206 769l-98 -44v20l98 44v-20z" />
    <glyph glyph-name="Ecircumflex" unicode="&#xca;" horiz-adv-x="283" 
d="M61 675h184v-20h-164v-307h121v-21h-121v-307h172v-20h-192v675zM157 769l-68 -44v20l68 44l68 -44v-20z" />
    <glyph glyph-name="Edieresis" unicode="&#xcb;" horiz-adv-x="283" 
d="M61 675h184v-20h-164v-307h121v-21h-121v-307h172v-20h-192v675zM109 776h20v-51h-20v51zM185 776h20v-51h-20v51z" />
    <glyph glyph-name="Igrave" unicode="&#xcc;" horiz-adv-x="142" 
d="M61 675h20v-675h-20v675zM22 789l98 -44v-20l-98 44v20z" />
    <glyph glyph-name="Iacute" unicode="&#xcd;" horiz-adv-x="142" 
d="M61 675h20v-675h-20v675zM120 769l-98 -44v20l98 44v-20z" />
    <glyph glyph-name="Icircumflex" unicode="&#xce;" horiz-adv-x="142" 
d="M61 675h20v-675h-20v675zM71 769l-68 -44v20l68 44l68 -44v-20z" />
    <glyph glyph-name="Idieresis" unicode="&#xcf;" horiz-adv-x="142" 
d="M61 675h20v-675h-20v675zM23 776h20v-51h-20v51zM99 776h20v-51h-20v51z" />
    <glyph glyph-name="Eth" unicode="&#xd0;" horiz-adv-x="374" 
d="M21 347h69v328h102q26 0 49 -10t40 -27t27 -40t10 -49v-423q0 -26 -10 -49t-27 -40t-40 -27t-49 -10h-102v327h-69v20zM110 20h82q45 0 75.5 30.5t30.5 75.5v423q0 45 -30.5 75.5t-75.5 30.5h-82v-308h69v-20h-69v-307z" />
    <glyph glyph-name="Ntilde" unicode="&#xd1;" horiz-adv-x="366" 
d="M285 63v612h20v-675h-20l-202 644h-2v-644h-20v675h31zM139 738h-20v24q0 15 11 26t26 11t26 -11t11 -26q0 -7 5 -12t12 -5t12 5t5 12v23h20v-23q0 -15 -11 -26t-26 -11t-26 11t-11 26q0 7 -5 12t-12 5t-12 -5t-5 -12v-24z" />
    <glyph glyph-name="Ograve" unicode="&#xd2;" horiz-adv-x="340" 
d="M284 109q0 -24 -9 -44.5t-24.5 -36t-36 -24.5t-44.5 -9t-44.5 9t-36 24.5t-24.5 36t-9 44.5v457q0 24 9 44.5t24.5 36t36 24.5t44.5 9t44.5 -9t36 -24.5t24.5 -36t9 -44.5v-457zM264 566q0 19 -7.5 36.5t-20 30t-30 20t-36.5 7.5q-20 0 -37 -7.5t-29.5 -20t-20 -30
t-7.5 -36.5v-457q0 -20 7.5 -37t20 -29.5t29.5 -20t37 -7.5q19 0 36.5 7.5t30 20t20 29.5t7.5 37v457zM121 789l98 -44v-20l-98 44v20z" />
    <glyph glyph-name="Oacute" unicode="&#xd3;" horiz-adv-x="340" 
d="M284 109q0 -24 -9 -44.5t-24.5 -36t-36 -24.5t-44.5 -9t-44.5 9t-36 24.5t-24.5 36t-9 44.5v457q0 24 9 44.5t24.5 36t36 24.5t44.5 9t44.5 -9t36 -24.5t24.5 -36t9 -44.5v-457zM264 566q0 19 -7.5 36.5t-20 30t-30 20t-36.5 7.5q-20 0 -37 -7.5t-29.5 -20t-20 -30
t-7.5 -36.5v-457q0 -20 7.5 -37t20 -29.5t29.5 -20t37 -7.5q19 0 36.5 7.5t30 20t20 29.5t7.5 37v457zM219 769l-98 -44v20l98 44v-20z" />
    <glyph glyph-name="Ocircumflex" unicode="&#xd4;" horiz-adv-x="340" 
d="M284 109q0 -24 -9 -44.5t-24.5 -36t-36 -24.5t-44.5 -9t-44.5 9t-36 24.5t-24.5 36t-9 44.5v457q0 24 9 44.5t24.5 36t36 24.5t44.5 9t44.5 -9t36 -24.5t24.5 -36t9 -44.5v-457zM264 566q0 19 -7.5 36.5t-20 30t-30 20t-36.5 7.5q-20 0 -37 -7.5t-29.5 -20t-20 -30
t-7.5 -36.5v-457q0 -20 7.5 -37t20 -29.5t29.5 -20t37 -7.5q19 0 36.5 7.5t30 20t20 29.5t7.5 37v457zM170 769l-68 -44v20l68 44l68 -44v-20z" />
    <glyph glyph-name="Otilde" unicode="&#xd5;" horiz-adv-x="340" 
d="M284 109q0 -24 -9 -44.5t-24.5 -36t-36 -24.5t-44.5 -9t-44.5 9t-36 24.5t-24.5 36t-9 44.5v457q0 24 9 44.5t24.5 36t36 24.5t44.5 9t44.5 -9t36 -24.5t24.5 -36t9 -44.5v-457zM264 566q0 19 -7.5 36.5t-20 30t-30 20t-36.5 7.5q-20 0 -37 -7.5t-29.5 -20t-20 -30
t-7.5 -36.5v-457q0 -20 7.5 -37t20 -29.5t29.5 -20t37 -7.5q19 0 36.5 7.5t30 20t20 29.5t7.5 37v457zM126 738h-20v24q0 15 11 26t26 11t26 -11t11 -26q0 -7 5 -12t12 -5t12 5t5 12v23h20v-23q0 -15 -11 -26t-26 -11t-26 11t-11 26q0 7 -5 12t-12 5t-12 -5t-5 -12v-24z" />
    <glyph glyph-name="Odieresis" unicode="&#xd6;" horiz-adv-x="340" 
d="M284 109q0 -24 -9 -44.5t-24.5 -36t-36 -24.5t-44.5 -9t-44.5 9t-36 24.5t-24.5 36t-9 44.5v457q0 24 9 44.5t24.5 36t36 24.5t44.5 9t44.5 -9t36 -24.5t24.5 -36t9 -44.5v-457zM264 566q0 19 -7.5 36.5t-20 30t-30 20t-36.5 7.5q-20 0 -37 -7.5t-29.5 -20t-20 -30
t-7.5 -36.5v-457q0 -20 7.5 -37t20 -29.5t29.5 -20t37 -7.5q19 0 36.5 7.5t30 20t20 29.5t7.5 37v457zM122 776h20v-51h-20v51zM198 776h20v-51h-20v51z" />
    <glyph glyph-name="multiply" unicode="&#xd7;" horiz-adv-x="298" 
d="M163 313l84 -84l-14 -14l-84 84l-84 -84l-14 14l84 84l-84 84l14 14l84 -84l84 84l14 -14z" />
    <glyph glyph-name="Oslash" unicode="&#xd8;" horiz-adv-x="340" 
d="M73 49q-17 26 -17 60v457q0 24 9 44.5t24.5 36t36 24.5t44.5 9q25 0 46 -9.5t37 -26.5l9 31h20l-15 -49q17 -28 17 -60v-457q0 -24 -9 -44.5t-24.5 -36t-36 -24.5t-44.5 -9q-50 0 -83 35l-9 -30h-20zM76 109q0 -15 5 -32l165 544q-13 18 -33 28.5t-43 10.5
q-20 0 -37 -7.5t-29.5 -20t-20 -30t-7.5 -36.5v-457zM264 566q0 16 -6 31l-164 -544q13 -17 33 -27.5t43 -10.5q19 0 36.5 7.5t30 20t20 29.5t7.5 37v457z" />
    <glyph glyph-name="Ugrave" unicode="&#xd9;" horiz-adv-x="346" 
d="M287 675v-566q0 -24 -9 -44.5t-24.5 -36t-36 -24.5t-44.5 -9t-44.5 9t-36 24.5t-24.5 36t-9 44.5v566h20v-566q0 -20 7.5 -37t20 -29.5t29.5 -20t37 -7.5q19 0 36.5 7.5t30 20t20 29.5t7.5 37v566h20zM124 789l98 -44v-20l-98 44v20z" />
    <glyph glyph-name="Uacute" unicode="&#xda;" horiz-adv-x="346" 
d="M287 675v-566q0 -24 -9 -44.5t-24.5 -36t-36 -24.5t-44.5 -9t-44.5 9t-36 24.5t-24.5 36t-9 44.5v566h20v-566q0 -20 7.5 -37t20 -29.5t29.5 -20t37 -7.5q19 0 36.5 7.5t30 20t20 29.5t7.5 37v566h20zM222 769l-98 -44v20l98 44v-20z" />
    <glyph glyph-name="Ucircumflex" unicode="&#xdb;" horiz-adv-x="346" 
d="M287 675v-566q0 -24 -9 -44.5t-24.5 -36t-36 -24.5t-44.5 -9t-44.5 9t-36 24.5t-24.5 36t-9 44.5v566h20v-566q0 -20 7.5 -37t20 -29.5t29.5 -20t37 -7.5q19 0 36.5 7.5t30 20t20 29.5t7.5 37v566h20zM173 769l-68 -44v20l68 44l68 -44v-20z" />
    <glyph glyph-name="Udieresis" unicode="&#xdc;" horiz-adv-x="346" 
d="M287 675v-566q0 -24 -9 -44.5t-24.5 -36t-36 -24.5t-44.5 -9t-44.5 9t-36 24.5t-24.5 36t-9 44.5v566h20v-566q0 -20 7.5 -37t20 -29.5t29.5 -20t37 -7.5q19 0 36.5 7.5t30 20t20 29.5t7.5 37v566h20zM125 776h20v-51h-20v51zM201 776h20v-51h-20v51z" />
    <glyph glyph-name="Yacute" unicode="&#xdd;" horiz-adv-x="298" 
d="M139 337l-121 338h20l110 -312h2l110 312h20l-121 -338v-337h-20v337zM198 769l-98 -44v20l98 44v-20z" />
    <glyph glyph-name="Thorn" unicode="&#xde;" horiz-adv-x="322" 
d="M61 0v675h20v-163h77q26 0 49 -10t40 -27t27 -40t10 -49v-97q0 -26 -10 -49t-27 -40t-40 -27t-49 -10h-77v-163h-20zM81 183h77q45 0 75.5 30.5t30.5 75.5v97q0 45 -30.5 75.5t-75.5 30.5h-77v-309z" />
    <glyph glyph-name="germandbls" unicode="&#xdf;" horiz-adv-x="406" 
d="M53 558q0 25 9.5 47.5t26 39t39 26t47.5 9.5t47.5 -9.5t39 -26t26 -39t9.5 -47.5v-34q0 -7 -1.5 -12.5t-3.5 -9.5q-3 -4 -5 -8l-65 -80q-2 -1 -3 -4q-2 -6 -2 -13v-45q0 -11 3 -19t7 -14q4 -7 11 -12l106 -89q9 -8 16 -19q6 -9 11.5 -20.5t5.5 -25.5v-66q0 -19 -7 -36
t-19.5 -29.5t-29.5 -19.5t-36 -7t-36 7t-29.5 19.5t-19.5 29.5t-7 36v68l20 2v-70q0 -30 21 -51t51 -21t51 21t21 51v66q0 10 -4 19t-9 16q-6 8 -13 14l-106 89q-8 7 -14 17q-5 8 -9.5 19t-4.5 25v45q0 14 5 22q2 4 5 8l65 80q1 1 2 4q1 2 2 5t1 8v34q0 21 -8 39.5t-22 32.5
t-32.5 22t-39.5 8t-39.5 -8t-32.5 -22t-22 -32.5t-8 -39.5v-558h-20v558z" />
    <glyph glyph-name="agrave" unicode="&#xe0;" horiz-adv-x="275" 
d="M202 277q-5 -6 -10 -10.5t-9 -7.5q-4 -4 -9 -6l-92 -53q-7 -5 -12 -11q-5 -5 -8.5 -12.5t-3.5 -18.5v-71q0 -30 21 -51t51 -21t51 21t21 51v190zM202 407q0 27 -19.5 46.5t-46.5 19.5t-46.5 -19.5t-19.5 -46.5v-78l-20 -2v80q0 18 7 33.5t18.5 27t27 18.5t33.5 7t33.5 -7
t27 -18.5t18.5 -27t7 -33.5v-369q0 -8 5 -13t13 -5v-20q-14 0 -24.5 8.5t-12.5 21.5q-13 -16 -32 -25.5t-41 -9.5q-19 0 -36 7t-29.5 19.5t-19.5 29.5t-7 36v71q0 15 5 26t12 19q7 9 17 15l92 53q10 6 19 15q7 8 13 17.5t6 22.5v81zM87 602l98 -44v-20l-98 44v20z" />
    <glyph glyph-name="aacute" unicode="&#xe1;" horiz-adv-x="275" 
d="M202 277q-5 -6 -10 -10.5t-9 -7.5q-4 -4 -9 -6l-92 -53q-7 -5 -12 -11q-5 -5 -8.5 -12.5t-3.5 -18.5v-71q0 -30 21 -51t51 -21t51 21t21 51v190zM202 407q0 27 -19.5 46.5t-46.5 19.5t-46.5 -19.5t-19.5 -46.5v-78l-20 -2v80q0 18 7 33.5t18.5 27t27 18.5t33.5 7t33.5 -7
t27 -18.5t18.5 -27t7 -33.5v-369q0 -8 5 -13t13 -5v-20q-14 0 -24.5 8.5t-12.5 21.5q-13 -16 -32 -25.5t-41 -9.5q-19 0 -36 7t-29.5 19.5t-19.5 29.5t-7 36v71q0 15 5 26t12 19q7 9 17 15l92 53q10 6 19 15q7 8 13 17.5t6 22.5v81zM185 582l-98 -44v20l98 44v-20z" />
    <glyph glyph-name="acircumflex" unicode="&#xe2;" horiz-adv-x="275" 
d="M202 277q-5 -6 -10 -10.5t-9 -7.5q-4 -4 -9 -6l-92 -53q-7 -5 -12 -11q-5 -5 -8.5 -12.5t-3.5 -18.5v-71q0 -30 21 -51t51 -21t51 21t21 51v190zM202 407q0 27 -19.5 46.5t-46.5 19.5t-46.5 -19.5t-19.5 -46.5v-78l-20 -2v80q0 18 7 33.5t18.5 27t27 18.5t33.5 7t33.5 -7
t27 -18.5t18.5 -27t7 -33.5v-369q0 -8 5 -13t13 -5v-20q-14 0 -24.5 8.5t-12.5 21.5q-13 -16 -32 -25.5t-41 -9.5q-19 0 -36 7t-29.5 19.5t-19.5 29.5t-7 36v71q0 15 5 26t12 19q7 9 17 15l92 53q10 6 19 15q7 8 13 17.5t6 22.5v81zM136 582l-68 -44v20l68 44l68 -44v-20z
" />
    <glyph glyph-name="atilde" unicode="&#xe3;" horiz-adv-x="275" 
d="M202 277q-5 -6 -10 -10.5t-9 -7.5q-4 -4 -9 -6l-92 -53q-7 -5 -12 -11q-5 -5 -8.5 -12.5t-3.5 -18.5v-71q0 -30 21 -51t51 -21t51 21t21 51v190zM202 407q0 27 -19.5 46.5t-46.5 19.5t-46.5 -19.5t-19.5 -46.5v-78l-20 -2v80q0 18 7 33.5t18.5 27t27 18.5t33.5 7t33.5 -7
t27 -18.5t18.5 -27t7 -33.5v-369q0 -8 5 -13t13 -5v-20q-14 0 -24.5 8.5t-12.5 21.5q-13 -16 -32 -25.5t-41 -9.5q-19 0 -36 7t-29.5 19.5t-19.5 29.5t-7 36v71q0 15 5 26t12 19q7 9 17 15l92 53q10 6 19 15q7 8 13 17.5t6 22.5v81zM92 551h-20v24q0 15 11 26t26 11t26 -11
t11 -26q0 -7 5 -12t12 -5t12 5t5 12v23h20v-23q0 -15 -11 -26t-26 -11t-26 11t-11 26q0 7 -5 12t-12 5t-12 -5t-5 -12v-24z" />
    <glyph glyph-name="adieresis" unicode="&#xe4;" horiz-adv-x="275" 
d="M202 277q-5 -6 -10 -10.5t-9 -7.5q-4 -4 -9 -6l-92 -53q-7 -5 -12 -11q-5 -5 -8.5 -12.5t-3.5 -18.5v-71q0 -30 21 -51t51 -21t51 21t21 51v190zM202 407q0 27 -19.5 46.5t-46.5 19.5t-46.5 -19.5t-19.5 -46.5v-78l-20 -2v80q0 18 7 33.5t18.5 27t27 18.5t33.5 7t33.5 -7
t27 -18.5t18.5 -27t7 -33.5v-369q0 -8 5 -13t13 -5v-20q-14 0 -24.5 8.5t-12.5 21.5q-13 -16 -32 -25.5t-41 -9.5q-19 0 -36 7t-29.5 19.5t-19.5 29.5t-7 36v71q0 15 5 26t12 19q7 9 17 15l92 53q10 6 19 15q7 8 13 17.5t6 22.5v81zM88 589h20v-51h-20v51zM164 589h20v-51
h-20v51z" />
    <glyph glyph-name="aring" unicode="&#xe5;" horiz-adv-x="275" 
d="M202 277q-5 -6 -10 -10.5t-9 -7.5q-4 -4 -9 -6l-92 -53q-7 -5 -12 -11q-5 -5 -8.5 -12.5t-3.5 -18.5v-71q0 -30 21 -51t51 -21t51 21t21 51v190zM202 407q0 27 -19.5 46.5t-46.5 19.5t-46.5 -19.5t-19.5 -46.5v-78l-20 -2v80q0 18 7 33.5t18.5 27t27 18.5t33.5 7t33.5 -7
t27 -18.5t18.5 -27t7 -33.5v-369q0 -8 5 -13t13 -5v-20q-14 0 -24.5 8.5t-12.5 21.5q-13 -16 -32 -25.5t-41 -9.5q-19 0 -36 7t-29.5 19.5t-19.5 29.5t-7 36v71q0 15 5 26t12 19q7 9 17 15l92 53q10 6 19 15q7 8 13 17.5t6 22.5v81zM80 594q0 23 16.5 39.5t39.5 16.5
t39.5 -16.5t16.5 -39.5t-16.5 -39.5t-39.5 -16.5t-39.5 16.5t-16.5 39.5zM96 594q0 -17 11.5 -28.5t28.5 -11.5t28.5 11.5t11.5 28.5t-11.5 28.5t-28.5 11.5t-28.5 -11.5t-11.5 -28.5z" />
    <glyph glyph-name="ae" unicode="&#xe6;" horiz-adv-x="429" 
d="M386 167v-80q0 -19 -7 -36t-19.5 -29.5t-29.5 -19.5t-36 -7q-26 0 -48 13.5t-34 35.5q-11 -22 -33 -35.5t-49 -13.5q-19 0 -36 7t-29.5 19.5t-19.5 29.5t-7 36v71q0 15 5 26t12 19q7 9 17 15l92 53q10 6 19 15q7 8 13 17.5t6 22.5v81q0 27 -19.5 46.5t-46.5 19.5
t-46.5 -19.5t-19.5 -46.5v-78l-20 -2v80q0 18 7 33.5t18.5 27t27 18.5t33.5 7q26 0 46 -13.5t31 -34.5q12 22 33.5 35t47.5 13q19 0 36 -7t29.5 -19.5t19.5 -29.5t7 -36v-150h-164v-164q0 -30 21 -51t51 -21t51 21t21 51v78zM202 277q-5 -6 -10 -10.5t-9 -7.5q-4 -4 -9 -6
l-92 -53q-7 -5 -12 -11q-5 -5 -8.5 -12.5t-3.5 -18.5v-71q0 -30 21 -51t51 -21t51 21t21 51v190zM366 401q0 30 -21 51t-51 21t-51 -21t-21 -51v-130h144v130z" />
    <glyph glyph-name="ccedilla" unicode="&#xe7;" horiz-adv-x="274" 
d="M135 -45v40q-37 2 -61.5 28.5t-24.5 63.5v314q0 19 7 36t19.5 29.5t29.5 19.5t36 7t36 -7t29.5 -19.5t19.5 -29.5t7 -36v-77l-20 -2v79q0 30 -21 51t-51 21t-51 -21t-21 -51v-314q0 -30 21 -51t51 -21t51 21t21 51v74h20v-74q0 -18 -6.5 -34.5t-18.5 -29t-27.5 -20
t-33.5 -8.5v-26q18 0 31 -13t13 -31t-13 -31t-31 -13t-31 13t-13 31h14q0 -13 8.5 -21.5t21.5 -8.5t21.5 8.5t8.5 21.5t-8.5 21.5t-21.5 8.5h-12z" />
    <glyph glyph-name="egrave" unicode="&#xe8;" horiz-adv-x="276" 
d="M233 167v-80q0 -19 -7 -36t-19.5 -29.5t-29.5 -19.5t-36 -7t-36 7t-29.5 19.5t-19.5 29.5t-7 36v314q0 19 7 36t19.5 29.5t29.5 19.5t36 7t36 -7t29.5 -19.5t19.5 -29.5t7 -36v-150h-164v-164q0 -30 21 -51t51 -21t51 21t21 51v78zM213 401q0 30 -21 51t-51 21t-51 -21
t-21 -51v-130h144v130zM92 602l98 -44v-20l-98 44v20z" />
    <glyph glyph-name="eacute" unicode="&#xe9;" horiz-adv-x="276" 
d="M233 167v-80q0 -19 -7 -36t-19.5 -29.5t-29.5 -19.5t-36 -7t-36 7t-29.5 19.5t-19.5 29.5t-7 36v314q0 19 7 36t19.5 29.5t29.5 19.5t36 7t36 -7t29.5 -19.5t19.5 -29.5t7 -36v-150h-164v-164q0 -30 21 -51t51 -21t51 21t21 51v78zM213 401q0 30 -21 51t-51 21t-51 -21
t-21 -51v-130h144v130zM190 582l-98 -44v20l98 44v-20z" />
    <glyph glyph-name="ecircumflex" unicode="&#xea;" horiz-adv-x="276" 
d="M233 167v-80q0 -19 -7 -36t-19.5 -29.5t-29.5 -19.5t-36 -7t-36 7t-29.5 19.5t-19.5 29.5t-7 36v314q0 19 7 36t19.5 29.5t29.5 19.5t36 7t36 -7t29.5 -19.5t19.5 -29.5t7 -36v-150h-164v-164q0 -30 21 -51t51 -21t51 21t21 51v78zM213 401q0 30 -21 51t-51 21t-51 -21
t-21 -51v-130h144v130zM141 582l-68 -44v20l68 44l68 -44v-20z" />
    <glyph glyph-name="edieresis" unicode="&#xeb;" horiz-adv-x="276" 
d="M233 167v-80q0 -19 -7 -36t-19.5 -29.5t-29.5 -19.5t-36 -7t-36 7t-29.5 19.5t-19.5 29.5t-7 36v314q0 19 7 36t19.5 29.5t29.5 19.5t36 7t36 -7t29.5 -19.5t19.5 -29.5t7 -36v-150h-164v-164q0 -30 21 -51t51 -21t51 21t21 51v78zM213 401q0 30 -21 51t-51 21t-51 -21
t-21 -51v-130h144v130zM93 589h20v-51h-20v51zM169 589h20v-51h-20v51z" />
    <glyph glyph-name="igrave" unicode="&#xec;" horiz-adv-x="126" 
d="M14 602l98 -44v-20l-98 44v20zM73 0h-20v488h20v-488z" />
    <glyph glyph-name="iacute" unicode="&#xed;" horiz-adv-x="126" 
d="M112 582l-98 -44v20l98 44v-20zM73 0h-20v488h20v-488z" />
    <glyph glyph-name="icircumflex" unicode="&#xee;" horiz-adv-x="126" 
d="M63 582l-68 -44v20l68 44l68 -44v-20zM73 0h-20v488h20v-488z" />
    <glyph glyph-name="idieresis" unicode="&#xef;" horiz-adv-x="126" 
d="M15 589h20v-51h-20v51zM91 589h20v-51h-20v51zM73 0h-20v488h20v-488z" />
    <glyph glyph-name="eth" unicode="&#xf0;" horiz-adv-x="285" 
d="M159 585h54v88l20 2v-90h54v-20h-54v-478q0 -19 -7 -36t-19.5 -29.5t-29.5 -19.5t-36 -7t-36 7t-29.5 19.5t-19.5 29.5t-7 36v314q0 19 7 36t19 29.5t28.5 19.5t34.5 7q23 0 43 -11.5t32 -30.5v114h-54v20zM69 87q0 -30 21 -51t51 -21t51 21t21 51v314q0 30 -21 51
t-51 21t-51 -21t-21 -51v-314z" />
    <glyph glyph-name="ntilde" unicode="&#xf1;" horiz-adv-x="289" 
d="M237 0h-20v401q0 30 -21 51t-51 21t-51 -21t-21 -51v-401h-20v488h16l4 -37q12 19 32 30.5t43 11.5q18 0 34.5 -7t28.5 -19.5t19 -29.5t7 -36v-401zM101 551h-20v24q0 15 11 26t26 11t26 -11t11 -26q0 -7 5 -12t12 -5t12 5t5 12v23h20v-23q0 -15 -11 -26t-26 -11t-26 11
t-11 26q0 7 -5 12t-12 5t-12 -5t-5 -12v-24z" />
    <glyph glyph-name="ograve" unicode="&#xf2;" 
d="M213 401q0 30 -21 51t-51 21t-51 -21t-21 -51v-314q0 -30 21 -51t51 -21t51 21t21 51v314zM233 87q0 -19 -7 -36t-19.5 -29.5t-29.5 -19.5t-36 -7t-36 7t-29.5 19.5t-19.5 29.5t-7 36v314q0 19 7 36t19.5 29.5t29.5 19.5t36 7t36 -7t29.5 -19.5t19.5 -29.5t7 -36v-314z
M92 602l98 -44v-20l-98 44v20z" />
    <glyph glyph-name="oacute" unicode="&#xf3;" 
d="M213 401q0 30 -21 51t-51 21t-51 -21t-21 -51v-314q0 -30 21 -51t51 -21t51 21t21 51v314zM233 87q0 -19 -7 -36t-19.5 -29.5t-29.5 -19.5t-36 -7t-36 7t-29.5 19.5t-19.5 29.5t-7 36v314q0 19 7 36t19.5 29.5t29.5 19.5t36 7t36 -7t29.5 -19.5t19.5 -29.5t7 -36v-314z
M190 582l-98 -44v20l98 44v-20z" />
    <glyph glyph-name="ocircumflex" unicode="&#xf4;" 
d="M213 401q0 30 -21 51t-51 21t-51 -21t-21 -51v-314q0 -30 21 -51t51 -21t51 21t21 51v314zM233 87q0 -19 -7 -36t-19.5 -29.5t-29.5 -19.5t-36 -7t-36 7t-29.5 19.5t-19.5 29.5t-7 36v314q0 19 7 36t19.5 29.5t29.5 19.5t36 7t36 -7t29.5 -19.5t19.5 -29.5t7 -36v-314z
M141 582l-68 -44v20l68 44l68 -44v-20z" />
    <glyph glyph-name="otilde" unicode="&#xf5;" 
d="M213 401q0 30 -21 51t-51 21t-51 -21t-21 -51v-314q0 -30 21 -51t51 -21t51 21t21 51v314zM233 87q0 -19 -7 -36t-19.5 -29.5t-29.5 -19.5t-36 -7t-36 7t-29.5 19.5t-19.5 29.5t-7 36v314q0 19 7 36t19.5 29.5t29.5 19.5t36 7t36 -7t29.5 -19.5t19.5 -29.5t7 -36v-314z
M97 551h-20v24q0 15 11 26t26 11t26 -11t11 -26q0 -7 5 -12t12 -5t12 5t5 12v23h20v-23q0 -15 -11 -26t-26 -11t-26 11t-11 26q0 7 -5 12t-12 5t-12 -5t-5 -12v-24z" />
    <glyph glyph-name="odieresis" unicode="&#xf6;" 
d="M213 401q0 30 -21 51t-51 21t-51 -21t-21 -51v-314q0 -30 21 -51t51 -21t51 21t21 51v314zM233 87q0 -19 -7 -36t-19.5 -29.5t-29.5 -19.5t-36 -7t-36 7t-29.5 19.5t-19.5 29.5t-7 36v314q0 19 7 36t19.5 29.5t29.5 19.5t36 7t36 -7t29.5 -19.5t19.5 -29.5t7 -36v-314z
M93 589h20v-51h-20v51zM169 589h20v-51h-20v51z" />
    <glyph glyph-name="divide" unicode="&#xf7;" horiz-adv-x="322" 
d="M52 323h218v-20h-218v20zM141 394q0 8 6 14t14 6t14 -6t6 -14t-6 -14t-14 -6t-14 6t-6 14zM141 232q0 8 6 14t14 6t14 -6t6 -14t-6 -14t-14 -6t-14 6t-6 14z" />
    <glyph glyph-name="oslash" unicode="&#xf8;" 
d="M63 37q-14 23 -14 50v314q0 19 7 36t19.5 29.5t29.5 19.5t36 7q37 0 63 -26l7 21h20l-13 -38q15 -23 15 -49v-314q0 -19 -7 -36t-19.5 -29.5t-29.5 -19.5t-36 -7q-37 0 -64 25l-6 -20h-20zM69 87q0 -13 3 -23l125 382q-10 12 -24.5 19.5t-31.5 7.5q-30 0 -51 -21t-21 -51
v-314zM213 401q0 5 -1 11t-3 11l-125 -381q21 -27 57 -27q30 0 51 21t21 51v314z" />
    <glyph glyph-name="ugrave" unicode="&#xf9;" horiz-adv-x="289" 
d="M52 488h20v-401q0 -30 21 -51t51 -21t51 21t21 51v401h20v-488h-16l-4 37q-12 -19 -32 -30.5t-43 -11.5q-18 0 -34.5 7t-28.5 19.5t-19 29.5t-7 36v401zM95 602l98 -44v-20l-98 44v20z" />
    <glyph glyph-name="uacute" unicode="&#xfa;" horiz-adv-x="289" 
d="M52 488h20v-401q0 -30 21 -51t51 -21t51 21t21 51v401h20v-488h-16l-4 37q-12 -19 -32 -30.5t-43 -11.5q-18 0 -34.5 7t-28.5 19.5t-19 29.5t-7 36v401zM193 582l-98 -44v20l98 44v-20z" />
    <glyph glyph-name="ucircumflex" unicode="&#xfb;" horiz-adv-x="289" 
d="M52 488h20v-401q0 -30 21 -51t51 -21t51 21t21 51v401h20v-488h-16l-4 37q-12 -19 -32 -30.5t-43 -11.5q-18 0 -34.5 7t-28.5 19.5t-19 29.5t-7 36v401zM144 582l-68 -44v20l68 44l68 -44v-20z" />
    <glyph glyph-name="udieresis" unicode="&#xfc;" horiz-adv-x="289" 
d="M52 488h20v-401q0 -30 21 -51t51 -21t51 21t21 51v401h20v-488h-16l-4 37q-12 -19 -32 -30.5t-43 -11.5q-18 0 -34.5 7t-28.5 19.5t-19 29.5t-7 36v401zM96 589h20v-51h-20v51zM172 589h20v-51h-20v51z" />
    <glyph glyph-name="yacute" unicode="&#xfd;" horiz-adv-x="245" 
d="M47 -142q16 0 26 8t16 19q7 12 10 28l14 81l-87 494h21l75 -437h2l75 437h21l-101 -575q-4 -21 -14 -38q-8 -14 -22 -25.5t-36 -11.5v20zM172 582l-98 -44v20l98 44v-20z" />
    <glyph glyph-name="thorn" unicode="&#xfe;" horiz-adv-x="286" 
d="M237 87q0 -19 -7 -36t-19 -29.5t-28.5 -19.5t-34.5 -7q-23 0 -43 11.5t-32 30.5v-197l-20 -2v835l20 2v-224q12 19 32 30.5t43 11.5q18 0 34.5 -7t28.5 -19.5t19 -29.5t7 -36v-314zM217 401q0 30 -21 51t-51 21t-51 -21t-21 -51v-314q0 -30 21 -51t51 -21t51 21t21 51
v314z" />
    <glyph glyph-name="ydieresis" unicode="&#xff;" horiz-adv-x="245" 
d="M47 -142q16 0 26 8t16 19q7 12 10 28l14 81l-87 494h21l75 -437h2l75 437h21l-101 -575q-4 -21 -14 -38q-8 -14 -22 -25.5t-36 -11.5v20zM75 589h20v-51h-20v51zM151 589h20v-51h-20v51z" />
    <glyph glyph-name="dotlessi" unicode="&#x131;" horiz-adv-x="126" 
d="M73 0h-20v488h20v-488z" />
    <glyph glyph-name="OE" unicode="&#x152;" horiz-adv-x="487" 
d="M284 348h121v-21h-121v-218q0 -27 -11 -50t-31 -39h214v-20h-252q-18 -5 -34 -5q-24 0 -44.5 9t-36 24.5t-24.5 36t-9 44.5v457q0 24 9 44.5t24.5 36t36 24.5t44.5 9q16 0 34 -5h244v-20h-206q20 -16 31 -39t11 -50v-218zM264 566q0 19 -7.5 36.5t-20 30t-30 20
t-36.5 7.5q-20 0 -37 -7.5t-29.5 -20t-20 -30t-7.5 -36.5v-457q0 -20 7.5 -37t20 -29.5t29.5 -20t37 -7.5q19 0 36.5 7.5t30 20t20 29.5t7.5 37v457z" />
    <glyph glyph-name="oe" unicode="&#x153;" horiz-adv-x="440" 
d="M397 167v-80q0 -19 -7 -36t-19.5 -29.5t-29.5 -19.5t-36 -7q-26 0 -48 13.5t-34 35.5q-11 -22 -33 -35.5t-49 -13.5q-19 0 -36 7t-29.5 19.5t-19.5 29.5t-7 36v314q0 19 7 36t19.5 29.5t29.5 19.5t36 7q27 0 49 -13.5t33 -36.5q12 23 34 36.5t48 13.5q19 0 36 -7
t29.5 -19.5t19.5 -29.5t7 -36v-150h-164v-164q0 -30 21 -51t51 -21t51 21t21 51v78zM213 401q0 30 -21 51t-51 21t-51 -21t-21 -51v-314q0 -30 21 -51t51 -21t51 21t21 51v314zM233 271h144v130q0 30 -21 51t-51 21t-51 -21t-21 -51v-130z" />
    <glyph glyph-name="Scaron" unicode="&#x160;" horiz-adv-x="320" 
d="M46 223l20 2v-116q0 -20 7.5 -37t20 -29.5t29.5 -20t37 -7.5q19 0 36.5 7.5t30 20t20 29.5t7.5 37v87q0 9 -2.5 16.5t-5.5 13.5q-4 6 -7 12l-173 206q-6 7 -10 16q-4 8 -7 17.5t-3 21.5v67q0 24 9 44.5t24.5 36t36 24.5t44.5 9t44.5 -9t36 -24.5t24.5 -36t9 -44.5v-99
l-20 -2v101q0 19 -7.5 36.5t-20 30t-30 20t-36.5 7.5q-20 0 -37 -7.5t-29.5 -20t-20 -30t-7.5 -36.5v-67q0 -18 7 -30q4 -7 8 -12l173 -206q6 -7 10 -16q4 -8 7 -18t3 -21v-87q0 -24 -9 -44.5t-24.5 -36t-36 -24.5t-44.5 -9t-44.5 9t-36 24.5t-24.5 36t-9 44.5v114zM228 789
v-20l-68 -44l-68 44v20l68 -44z" />
    <glyph glyph-name="scaron" unicode="&#x161;" horiz-adv-x="264" 
d="M85 307q26 -23 53 -44.5t53 -44.5q9 -8 16 -19q6 -9 11.5 -20.5t5.5 -25.5v-66q0 -19 -7 -36t-19.5 -29.5t-29.5 -19.5t-36 -7t-36 7t-29.5 19.5t-19.5 29.5t-7 36v68l20 2v-70q0 -30 21 -51t51 -21t51 21t21 51v66q0 10 -4 19t-9 16q-6 8 -13 14l-106 89q-8 7 -14 17
q-5 8 -9.5 19t-4.5 25v53q0 37 25.5 62.5t62.5 25.5t62.5 -25.5t25.5 -62.5v-65l-20 -2v67q0 29 -19.5 48.5t-48.5 19.5t-48.5 -19.5t-19.5 -48.5v-53q0 -11 3 -19t7 -14q4 -7 11 -12zM200 602v-20l-68 -44l-68 44v20l68 -44z" />
    <glyph glyph-name="Ydieresis" unicode="&#x178;" horiz-adv-x="298" 
d="M139 337l-121 338h20l110 -312h2l110 312h20l-121 -338v-337h-20v337zM101 776h20v-51h-20v51zM177 776h20v-51h-20v51z" />
    <glyph glyph-name="Zcaron" unicode="&#x17d;" 
d="M36 675h216v-10l-203 -645h203v-20h-226v10l203 645h-193v20zM212 789v-20l-68 -44l-68 44v20l68 -44z" />
    <glyph glyph-name="zcaron" unicode="&#x17e;" horiz-adv-x="222" 
d="M30 488h162v-10l-138 -458h138v-20h-162v10l138 458h-138v20zM179 602v-20l-68 -44l-68 44v20l68 -44z" />
    <glyph glyph-name="florin" unicode="&#x192;" horiz-adv-x="176" 
d="M22 -142q22 0 37 15t15 37v558h-54v20h54v115q0 30 21 51t51 21h11v-20h-11q-22 0 -37 -15t-15 -37v-115h63v-20h-63v-558q0 -30 -21 -51t-51 -21h-11v20h11z" />
    <glyph glyph-name="circumflex" unicode="&#x2c6;" horiz-adv-x="176" 
d="M88 571l-68 -44v20l68 44l68 -44v-20z" />
    <glyph glyph-name="caron" unicode="&#x2c7;" horiz-adv-x="176" 
d="M156 591v-20l-68 -44l-68 44v20l68 -44z" />
    <glyph glyph-name="ring" unicode="&#x2da;" horiz-adv-x="152" 
d="M20 726q0 23 16.5 39.5t39.5 16.5t39.5 -16.5t16.5 -39.5t-16.5 -39.5t-39.5 -16.5t-39.5 16.5t-16.5 39.5zM36 726q0 -17 11.5 -28.5t28.5 -11.5t28.5 11.5t11.5 28.5t-11.5 28.5t-28.5 11.5t-28.5 -11.5t-11.5 -28.5z" />
    <glyph glyph-name="tilde" unicode="&#x2dc;" horiz-adv-x="168" 
d="M40 530h-20v24q0 15 11 26t26 11t26 -11t11 -26q0 -7 5 -12t12 -5t12 5t5 12v23h20v-23q0 -15 -11 -26t-26 -11t-26 11t-11 26q0 7 -5 12t-12 5t-12 -5t-5 -12v-24z" />
    <glyph glyph-name="endash" unicode="&#x2013;" horiz-adv-x="346" 
d="M47 295h252v-20h-252v20z" />
    <glyph glyph-name="emdash" unicode="&#x2014;" horiz-adv-x="436" 
d="M47 295h342v-20h-342v20z" />
    <glyph glyph-name="quoteleft" unicode="&#x2018;" horiz-adv-x="123" 
d="M46 623q0 22 12 37t29 15v-15q-9 0 -15 -11t-6 -26v-70h-20v70z" />
    <glyph glyph-name="quoteright" unicode="&#x2019;" horiz-adv-x="123" 
d="M77 553h-20v70q0 15 -6 26t-15 11v15q17 0 29 -15t12 -37v-70z" />
    <glyph glyph-name="quotesinglbase" unicode="&#x201a;" horiz-adv-x="168" 
d="M94 0q0 -22 -12 -37t-29 -15v15q9 0 15 11t6 26v70h20v-70z" />
    <glyph glyph-name="quotedblleft" unicode="&#x201c;" horiz-adv-x="183" 
d="M46 623q0 22 12 37t29 15v-15q-9 0 -15 -11t-6 -26v-70h-20v70zM106 623q0 22 12 37t29 15v-15q-9 0 -15 -11t-6 -26v-70h-20v70z" />
    <glyph glyph-name="quotedblright" unicode="&#x201d;" horiz-adv-x="183" 
d="M137 553h-20v70q0 15 -6 26t-15 11v15q17 0 29 -15t12 -37v-70zM77 553h-20v70q0 15 -6 26t-15 11v15q17 0 29 -15t12 -37v-70z" />
    <glyph glyph-name="quotedblbase" unicode="&#x201e;" horiz-adv-x="228" 
d="M94 0q0 -22 -12 -37t-29 -15v15q9 0 15 11t6 26v70h20v-70zM154 0q0 -22 -12 -37t-29 -15v15q9 0 15 11t6 26v70h20v-70z" />
    <glyph glyph-name="dagger" unicode="&#x2020;" horiz-adv-x="230" 
d="M29 488h76v185l20 2v-187h76v-20h-76v-512l-20 -2v514h-76v20z" />
    <glyph glyph-name="daggerdbl" unicode="&#x2021;" horiz-adv-x="252" 
d="M40 253h76v215h-76v20h76v185l20 2v-187h76v-20h-76v-215h76v-20h-76v-277l-20 -2v279h-76v20z" />
    <glyph glyph-name="bullet" unicode="&#x2022;" horiz-adv-x="240" 
d="M70 299q0 21 14.5 35.5t35.5 14.5t35.5 -14.5t14.5 -35.5t-14.5 -35.5t-35.5 -14.5t-35.5 14.5t-14.5 35.5z" />
    <glyph glyph-name="ellipsis" unicode="&#x2026;" horiz-adv-x="264" 
d="M50 70h20v-70h-20v70zM122 70h20v-70h-20v70zM194 70h20v-70h-20v70z" />
    <glyph glyph-name="perthousand" unicode="&#x2030;" horiz-adv-x="752" 
d="M447 675l19 -11l-383 -664l-19 11zM181 409q0 -29 -20.5 -49.5t-49.5 -20.5t-49.5 20.5t-20.5 49.5v201q0 29 20.5 49.5t49.5 20.5t49.5 -20.5t20.5 -49.5v-201zM61 409q0 -21 14.5 -35.5t35.5 -14.5t35.5 14.5t14.5 35.5v201q0 21 -14.5 35.5t-35.5 14.5t-35.5 -14.5
t-14.5 -35.5v-201zM489 65q0 -29 -20.5 -49.5t-49.5 -20.5t-49.5 20.5t-20.5 49.5v201q0 29 20.5 49.5t49.5 20.5t49.5 -20.5t20.5 -49.5v-201zM369 65q0 -21 14.5 -35.5t35.5 -14.5t35.5 14.5t14.5 35.5v201q0 21 -14.5 35.5t-35.5 14.5t-35.5 -14.5t-14.5 -35.5v-201z
M714 65q0 -29 -20.5 -49.5t-49.5 -20.5t-49.5 20.5t-20.5 49.5v201q0 29 20.5 49.5t49.5 20.5t49.5 -20.5t20.5 -49.5v-201zM594 65q0 -21 14.5 -35.5t35.5 -14.5t35.5 14.5t14.5 35.5v201q0 21 -14.5 35.5t-35.5 14.5t-35.5 -14.5t-14.5 -35.5v-201z" />
    <glyph glyph-name="guilsinglleft" unicode="&#x2039;" horiz-adv-x="202" 
d="M36 249l99 169h22l-99 -169l99 -169h-22z" />
    <glyph glyph-name="guilsinglright" unicode="&#x203a;" horiz-adv-x="202" 
d="M67 80h-22l99 169l-99 169h22l99 -169z" />
    <glyph glyph-name="Euro" unicode="&#x20ac;" horiz-adv-x="332" 
d="M286 182v-73q0 -24 -9 -44.5t-24.5 -36t-36 -24.5t-44.5 -9t-44.5 9t-36 24.5t-24.5 36t-9 44.5v457q0 24 9 44.5t24.5 36t36 24.5t44.5 9t44.5 -9t36 -24.5t24.5 -36t9 -44.5v-74l-20 -2v76q0 19 -7.5 36.5t-20 30t-30 20t-36.5 7.5q-20 0 -37 -7.5t-29.5 -20t-20 -30
t-7.5 -36.5v-156h146v-20h-146v-108h146v-20h-146v-153q0 -20 7.5 -37t20 -29.5t29.5 -20t37 -7.5q19 0 36.5 7.5t30 20t20 29.5t7.5 37v73h20z" />
    <glyph glyph-name="trademark" unicode="&#x2122;" horiz-adv-x="471" 
d="M48 675h124v-12h-55v-393h-13v393h-56v12zM404 649h-1l-77 -379h-14l-77 379h-1v-379h-12v405h20l76 -376h2l76 376h20v-405h-12v379z" />
    </font>
</defs>
</svg>
